<?xml version="1.0" encoding="UTF-8" standalone="no"?>
<svg
   xmlns:dc="http://purl.org/dc/elements/1.1/"
   xmlns:cc="http://creativecommons.org/ns#"
   xmlns:rdf="http://www.w3.org/1999/02/22-rdf-syntax-ns#"
   xmlns:svg="http://www.w3.org/2000/svg"
   xmlns="http://www.w3.org/2000/svg"
   xmlns:sodipodi="http://sodipodi.sourceforge.net/DTD/sodipodi-0.dtd"
   xmlns:inkscape="http://www.inkscape.org/namespaces/inkscape"
   style="height: 512px; width: 512px;"
   viewBox="0 0 512 512"
   version="1.1"
   id="svg8"
   sodipodi:docname="doorway.svg"
   inkscape:version="0.92.5 (2060ec1f9f, 2020-04-08)">
  <metadata
     id="metadata14">
    <rdf:RDF>
      <cc:Work
         rdf:about="">
        <dc:format>image/svg+xml</dc:format>
        <dc:type
           rdf:resource="http://purl.org/dc/dcmitype/StillImage" />
      </cc:Work>
    </rdf:RDF>
  </metadata>
  <defs
     id="defs12" />
  <sodipodi:namedview
     pagecolor="#ffffff"
     bordercolor="#666666"
     borderopacity="1"
     objecttolerance="10"
     gridtolerance="10"
     guidetolerance="10"
     inkscape:pageopacity="0"
     inkscape:pageshadow="2"
     inkscape:window-width="1848"
     inkscape:window-height="1016"
     id="namedview10"
     showgrid="false"
     showguides="true"
     inkscape:guide-bbox="true"
     inkscape:zoom="0.54619079"
     inkscape:cx="-413.95596"
     inkscape:cy="419.25924"
     inkscape:window-x="72"
     inkscape:window-y="27"
     inkscape:window-maximized="1"
     inkscape:current-layer="svg8">
    <sodipodi:guide
       position="65.7,209.3"
       orientation="1,0"
       id="guide821"
       inkscape:locked="false" />
    <sodipodi:guide
       position="97.56,428.65"
       orientation="-0.70710678,0.70710678"
       inkscape:locked="false"
       id="guide823" />
    <sodipodi:guide
       position="208.7,489.64"
       orientation="0,1"
       id="guide825"
       inkscape:locked="false" />
  </sodipodi:namedview>
  <path
     d="M0 0h512v512H0z"
     fill="#000000"
     fill-opacity="0.01"
     id="path2" />
  <path
     style="fill:#000000;fill-opacity:1"
     d="m 184.90039,22.359375 c -21,7.67 -55.89961,30.729844 -71.59961,45.839844 L 172.80078,128 c 0.1,-0.1 0.19844,-0.30039 0.39844,-0.40039 11.4,-10.6 24.90078,-18.30039 39.80078,-23.40039 z m 23.79883,0 22.40039,77.230469 c 8.9,-1.66 18.09961,-2.490235 27.59961,-2.490235 8.5,0 16.80039,0.679532 24.90039,2.019532 L 305.80078,22.359375 H 257.25 Z m 120.90039,0 L 301.5,104.19922 c 14.9,5.1 28.40078,12.80039 39.80078,23.40039 0.2,0.1 0.29844,0.30039 0.39844,0.40039 l 59.5,-59.800781 c -15.7,-15.11 -50.59961,-38.169844 -71.59961,-45.839844 z M 97.560547,83.349609 65.699219,139 145.80078,169.09961 c 3.7,-10 8.6,-19.09961 14.5,-27.09961 z m 319.378903,0 L 354.19922,142 c 5.9,8 10.8,17.09961 14.5,27.09961 L 448.80078,139 Z M 249.40039,116 c -25.2,1.7 -47.29961,10.30078 -63.59961,25.30078 -18.2,16.8 -29.70117,41.99883 -29.70117,77.29883 V 433.5 h 93.30078 z m 15.69922,0 v 317.5 h 93.30078 V 218.59961 c 0,-35.3 -11.50117,-60.49883 -29.70117,-77.29883 -16.3,-15 -38.39961,-23.60078 -63.59961,-25.30078 z M 65.699219,162.40039 v 65.5 H 137.5 v -9.30078 c 0,-11.2 1.09961,-21.70039 3.09961,-31.40039 z m 383.101561,0 -74.90039,24.79883 c 2,9.7 3.09961,20.20039 3.09961,31.40039 v 9.30078 h 71.80078 z M 65.699219,246.5 v 56.19922 H 137.5 V 246.5 Z M 377,246.5 v 56.19922 h 71.80078 V 246.5 Z M 65.699219,321.30078 v 37.5 H 137.5 v -37.5 z m 311.300781,0 v 37.5 h 71.80078 v -37.5 z M 65.699219,377.40039 V 433.5 H 137.5 v -56.09961 z m 311.300781,0 V 433.5 h 71.80078 v -56.09961 z m -311.300781,74.69922 -27.300781,37.5 H 476.10156 l -27.30078,-37.5 z"
     id="path4"
     inkscape:connector-curvature="0"
     sodipodi:nodetypes="ccccccccsccccccccccccccccccccccsccccccscccccsccccscccccccccccccccccccccccccccccccccccccc" />
</svg>
