<?xml version="1.0" encoding="UTF-8" standalone="no"?>
<svg
   xmlns:dc="http://purl.org/dc/elements/1.1/"
   xmlns:cc="http://creativecommons.org/ns#"
   xmlns:rdf="http://www.w3.org/1999/02/22-rdf-syntax-ns#"
   xmlns:svg="http://www.w3.org/2000/svg"
   xmlns="http://www.w3.org/2000/svg"
   xmlns:sodipodi="http://sodipodi.sourceforge.net/DTD/sodipodi-0.dtd"
   xmlns:inkscape="http://www.inkscape.org/namespaces/inkscape"
   style="height: 512px; width: 512px;"
   viewBox="0 0 512 512"
   version="1.1"
   id="svg8"
   sodipodi:docname="black-flag.svg"
   inkscape:version="0.92.5 (2060ec1f9f, 2020-04-08)">
  <metadata
     id="metadata14">
    <rdf:RDF>
      <cc:Work
         rdf:about="">
        <dc:format>image/svg+xml</dc:format>
        <dc:type
           rdf:resource="http://purl.org/dc/dcmitype/StillImage" />
      </cc:Work>
    </rdf:RDF>
  </metadata>
  <defs
     id="defs12" />
  <sodipodi:namedview
     pagecolor="#ffffff"
     bordercolor="#666666"
     borderopacity="1"
     objecttolerance="10"
     gridtolerance="10"
     guidetolerance="10"
     inkscape:pageopacity="0"
     inkscape:pageshadow="2"
     inkscape:window-width="1848"
     inkscape:window-height="1016"
     id="namedview10"
     showgrid="false"
     inkscape:zoom="1.5448608"
     inkscape:cx="256"
     inkscape:cy="220.42697"
     inkscape:window-x="72"
     inkscape:window-y="27"
     inkscape:window-maximized="1"
     inkscape:current-layer="svg8" />
  <g
     class=""
     style=""
     transform="translate(0,0)"
     id="g6">
    <path
       d="M256 22.438c-130.314 0-235.97 105.654-235.97 235.968 0 130.315 105.656 235.938 235.97 235.938 1.483 0 2.96-.004 4.438-.03l80.75-202.94C144.107 203.56 256.543 420.788 38.906 313.5c9.302-40.373 31.205-131.175 51.157-161.47 220.625 108.762 105.205-113.935 313.812-16.25 3.196-4.52 7.158-7.076 10.875-7.905 7.96-1.777 14.27 4.87 9.938 17.53l-137.75 346.908c115.697-15.15 205-114.077 205-233.907 0-130.314-105.624-235.97-235.938-235.97zm139.625 132.03c-36.11 16.943-57.968 83.92-47.28 118.845l47.28-118.844z"
       fill="#000000"
       fill-opacity="1"
       id="path4" />
  </g>
</svg>
