<?xml version="1.0" encoding="UTF-8" standalone="no"?>
<svg
   xmlns:dc="http://purl.org/dc/elements/1.1/"
   xmlns:cc="http://creativecommons.org/ns#"
   xmlns:rdf="http://www.w3.org/1999/02/22-rdf-syntax-ns#"
   xmlns:svg="http://www.w3.org/2000/svg"
   xmlns="http://www.w3.org/2000/svg"
   xmlns:sodipodi="http://sodipodi.sourceforge.net/DTD/sodipodi-0.dtd"
   xmlns:inkscape="http://www.inkscape.org/namespaces/inkscape"
   style="height: 512px; width: 512px;"
   viewBox="0 0 512 512"
   version="1.1"
   id="svg6"
   sodipodi:docname="card-play-tiny.svg"
   inkscape:version="0.92.5 (2060ec1f9f, 2020-04-08)">
  <metadata
     id="metadata12">
    <rdf:RDF>
      <cc:Work
         rdf:about="">
        <dc:format>image/svg+xml</dc:format>
        <dc:type
           rdf:resource="http://purl.org/dc/dcmitype/StillImage" />
      </cc:Work>
    </rdf:RDF>
  </metadata>
  <defs
     id="defs10" />
  <sodipodi:namedview
     pagecolor="#ffffff"
     bordercolor="#666666"
     borderopacity="1"
     objecttolerance="10"
     gridtolerance="10"
     guidetolerance="10"
     inkscape:pageopacity="0"
     inkscape:pageshadow="2"
     inkscape:window-width="1848"
     inkscape:window-height="1016"
     id="namedview8"
     showgrid="false"
     inkscape:zoom="1.3740112"
     inkscape:cx="160.50323"
     inkscape:cy="236.07399"
     inkscape:window-x="72"
     inkscape:window-y="27"
     inkscape:window-maximized="1"
     inkscape:current-layer="svg6" />
  <g
     class=""
     style="touch-action: none;"
     transform="translate(0,0)"
     id="g4">
    <path
       d="m 272.824,24.318 c -14.929,0.312 -25.66,3.246 -32.767,8.446 L 142.898,84.91 88.793,158.424 C 77.42,175.98 85.517,210 121.111,188.197 l 38.9,-51.351 c 49.476,-42.711 160.485,-33.032 112.587,52.591 -23.53,49.582 -12.457,69.79 17.76,79.95 l 13.812,-42.381 c 23.949,-53.825 58.502,-53.51 56.684,-96.904 l 107.302,7.724 -0.865,-112.045 z M 186.117,215.98 c -1.80919,0.0565 -3.58852,0.47649 -5.232,1.235 L 51.72,276.725 c -6.784,3.13 -9.763,11.202 -6.633,17.992 l 85.27,185.08 c 3.131,6.783 11.204,9.779 18,6.635 l 129.15,-59.504 c 6.796,-3.137 9.776,-11.198 6.646,-18 L 198.871,223.86 c -2.344,-5.097 -7.474,-8.043 -12.754,-7.88 z"
       id="path2"
       inkscape:connector-curvature="0"
       style="fill:#000000;fill-opacity:1"
       sodipodi:nodetypes="ccccccccccccccccccccccc" />
  </g>
</svg>
