<?xml version="1.0" encoding="UTF-8" standalone="no"?>
<svg
   xmlns:dc="http://purl.org/dc/elements/1.1/"
   xmlns:cc="http://creativecommons.org/ns#"
   xmlns:rdf="http://www.w3.org/1999/02/22-rdf-syntax-ns#"
   xmlns:svg="http://www.w3.org/2000/svg"
   xmlns="http://www.w3.org/2000/svg"
   xmlns:sodipodi="http://sodipodi.sourceforge.net/DTD/sodipodi-0.dtd"
   xmlns:inkscape="http://www.inkscape.org/namespaces/inkscape"
   style="height: 512px; width: 512px;"
   viewBox="0 0 512 512"
   version="1.1"
   id="svg18"
   sodipodi:docname="gloves(1).svg"
   inkscape:version="0.92.5 (2060ec1f9f, 2020-04-08)">
  <metadata
     id="metadata24">
    <rdf:RDF>
      <cc:Work
         rdf:about="">
        <dc:format>image/svg+xml</dc:format>
        <dc:type
           rdf:resource="http://purl.org/dc/dcmitype/StillImage" />
      </cc:Work>
    </rdf:RDF>
  </metadata>
  <defs
     id="defs22" />
  <sodipodi:namedview
     pagecolor="#ffffff"
     bordercolor="#666666"
     borderopacity="1"
     objecttolerance="10"
     gridtolerance="10"
     guidetolerance="10"
     inkscape:pageopacity="0"
     inkscape:pageshadow="2"
     inkscape:window-width="1848"
     inkscape:window-height="1016"
     id="namedview20"
     showgrid="false"
     inkscape:zoom="1.5448608"
     inkscape:cx="225.81577"
     inkscape:cy="256"
     inkscape:window-x="72"
     inkscape:window-y="27"
     inkscape:window-maximized="1"
     inkscape:current-layer="svg18" />
  <g
     class=""
     style=""
     transform="translate(0,0)"
     id="g16">
    <g
       transform="translate(512, 0) scale(-1, 1) rotate(-180, 256, 256) skewX(0) skewY(0)"
       id="g14">
      <path
         d="M322.516 37.237C320.713 37.239 318.974 37.471 317.21 37.614L265.458 123.034C326.842 128.355 357.237 156.539 368.268 184.294L351.542 190.94C343.835 171.55 324.582 150.116 279.225 142.766C298.387 156.479 312.767 172.344 320.153 191.666L303.339 198.093C295.476 177.522 276.209 159.995 247.604 144.253C237.542 148.373 185.994 169.426 168.149 175.47C131.004 188.049 110.772 213.562 72.167 258.37L72.036 258.52L71.901 258.665C65.639 265.317 63.007 271.318 62.403 275.695C61.799 280.07 62.887 282.792 64.811 284.825C68.659 288.891 78.989 291.465 94.281 281.093L94.356 281.042L169.397 232.27L180.251 246.571L128.796 291.881L34.698 378.843C22.769 389.867 22.962 400.585 25.748 404.284C27.142 406.134 29.247 407.554 34.331 407.325C39.415 407.096 47.277 404.63 57.112 397.893C86.845 377.528 114.547 357.177 138.862 332.632L138.809 332.409L139.176 332.317C139.348 332.144 139.523 331.975 139.694 331.802L140.044 332.095C143.456 331.198 146.821 330.134 150.128 328.907C156.141 326.661 162.57 322.565 163.333 321.53C163.657 321.09 165.507 314.837 165.823 309.376C166.139 303.915 165.829 299.272 165.829 299.272L183.786 298.04C183.786 298.04 184.183 303.68 183.794 310.415C183.404 317.149 183.139 325.001 177.817 332.215C172.057 340.025 163.633 343.078 156.425 345.77C154.337 346.544 152.228 347.259 150.099 347.913C125.727 380.597 94.766 405.489 66.139 431.421C56.235 440.393 52.136 448.11 51.224 452.852C50.311 457.595 51.358 459.259 53.81 461.032C58.712 464.578 74.974 465.151 91.808 449.642C124.822 419.225 157.03 389.008 181.646 352.922L182.458 353.405C183.902 352.781 186.667 351.55 190.421 349.501C195.391 346.788 200.784 342.483 201.505 341.395C202.19 340.362 204.038 333.815 204.593 328.262C205.148 322.71 205.105 318.057 205.105 318.057L223.103 317.864C223.103 317.864 223.167 323.407 222.503 330.054C221.838 336.7 221.137 344.358 216.507 351.343C211.841 358.381 204.98 362.063 199.044 365.302C197.234 366.29 195.567 367.128 194.021 367.88C177.548 397.791 153.868 423.71 128.651 450.835C123.261 456.633 122.27 461.039 122.589 464.147C122.909 467.255 124.631 469.915 128.011 472.014C134.771 476.214 147.646 476.878 159.444 464.702C173.05 450.66 185.374 435.982 196.108 420.405C205.406 403.443 214.858 386.317 223.87 369.21L224.454 369.481C225.332 369.195 228.364 368.186 232.321 366.436C236.898 364.413 241.923 360.923 242.374 360.343C242.811 359.78 244.944 354.081 245.771 349.175C246.597 344.268 246.831 340.118 246.831 340.118L264.806 341.108C264.806 341.108 264.532 346.158 263.521 352.165C262.509 358.171 261.475 365.098 256.587 371.387C251.685 377.695 245.197 380.425 239.601 382.899C238.742 383.279 237.96 383.59 237.151 383.923C230.014 400.124 221.377 415.331 211.528 429.727C207.956 436.246 204.304 442.857 200.88 449.229C197.728 455.095 197.532 459.335 198.243 462.194C198.955 465.054 200.561 466.91 202.973 468.134C207.798 470.582 216.355 470.312 224.103 459.522C281.543 379.53 350.624 299.245 381.21 194.536C383.453 186.857 388.35 183.075 394.204 177.641C400.058 172.208 407.186 166.374 414.174 160.585C421.164 154.795 428.015 149.045 433.004 144.195C436.315 140.975 438.423 137.822 439.462 136.382C437.018 126.855 433.026 117.316 427.829 108.13C416.742 115.249 404.692 121.796 395.034 127.087C401.209 112.185 404.959 96.476 407.433 80.341C402.246 74.726 396.651 69.501 390.694 64.71C369.457 47.657 344.659 37.212 322.516 37.237Z"
         class=""
         fill="#000000"
         fill-opacity="1"
         id="path2" />
    </g>
  </g>
</svg>
