<?xml version="1.0" encoding="UTF-8" standalone="no"?>
<svg
   xmlns:dc="http://purl.org/dc/elements/1.1/"
   xmlns:cc="http://creativecommons.org/ns#"
   xmlns:rdf="http://www.w3.org/1999/02/22-rdf-syntax-ns#"
   xmlns:svg="http://www.w3.org/2000/svg"
   xmlns="http://www.w3.org/2000/svg"
   xmlns:sodipodi="http://sodipodi.sourceforge.net/DTD/sodipodi-0.dtd"
   xmlns:inkscape="http://www.inkscape.org/namespaces/inkscape"
   style="height: 512px; width: 512px;"
   viewBox="0 0 512 512"
   version="1.1"
   id="svg6"
   sodipodi:docname="heraldic-sun.svg"
   inkscape:version="0.92.5 (2060ec1f9f, 2020-04-08)">
  <metadata
     id="metadata12">
    <rdf:RDF>
      <cc:Work
         rdf:about="">
        <dc:format>image/svg+xml</dc:format>
        <dc:type
           rdf:resource="http://purl.org/dc/dcmitype/StillImage" />
      </cc:Work>
    </rdf:RDF>
  </metadata>
  <defs
     id="defs10" />
  <sodipodi:namedview
     pagecolor="#ffffff"
     bordercolor="#666666"
     borderopacity="1"
     objecttolerance="10"
     gridtolerance="10"
     guidetolerance="10"
     inkscape:pageopacity="0"
     inkscape:pageshadow="2"
     inkscape:window-width="1848"
     inkscape:window-height="1016"
     id="namedview8"
     showgrid="false"
     showguides="true"
     inkscape:guide-bbox="true"
     inkscape:zoom="0.5256573"
     inkscape:cx="-453.95238"
     inkscape:cy="-4.5389816"
     inkscape:window-x="72"
     inkscape:window-y="27"
     inkscape:window-maximized="1"
     inkscape:current-layer="g4">
    <sodipodi:guide
       position="256,256"
       orientation="1,0"
       id="guide883"
       inkscape:locked="false"
       inkscape:label=""
       inkscape:color="rgb(0,0,255)" />
    <sodipodi:guide
       position="256,256"
       orientation="0,1"
       id="guide885"
       inkscape:locked="false"
       inkscape:label=""
       inkscape:color="rgb(0,0,255)" />
  </sodipodi:namedview>
  <g
     class=""
     style=""
     transform="translate(0,0)"
     id="g4">
    <path
       d="m 256.6,20.4 c 24.7,54 -45.4,65.3 -41,125.6 l -43.4,-39.6 14.8,67.2 -65.8,-23.7 39.5,56.3 -69.79,3.3 55.69,35.4 c -55.37,26.2 -75.96,-35 -126.21,10.5 54.04,-24.7 65.33,45.4 125.61,41 l -39.6,43.4 67.2,-14.8 -23.7,65.8 56.3,-39.5 3.3,69.7 35.4,-55.6 c 26.2,55.6 -35,75.6 10.5,126.6 -24.7,-54 45.4,-66 41,-126 l 43.4,40 -14.8,-67.6 65.8,23.7 -39.5,-56.3 69.8,-3.3 -55.7,-35.4 c 55.4,-26.2 76,35 126.2,-10.5 -54,24.7 -65.3,-45.4 -125.5,-41 l 39.5,-43.4 -67.2,14.8 23.7,-65.8 -56.3,39.5 -3.3,-69.8 -35.4,55.7 c -26.2,-55.4 35,-76 -10.5,-126.2 z M 256,154.5 C 312,154.5 357.5,200 357.5,256 357.5,312 312,357.5 256,357.5 200,357.5 154.5,312 154.5,256 154.5,200 200,154.5 256,154.5 Z"
       id="path2"
       inkscape:connector-curvature="0"
       style="fill:#000000;fill-opacity:1"
       sodipodi:nodetypes="cccccccccccccccccccccccccccccccccsssss" />
    <path
       id="path881"
       d="m 256,191.44 c -35.6,0 -64.56,28.96 -64.56,64.56 0,35.6 28.96,64.56 64.56,64.56 35.6,0 64.56,-28.96 64.56,-64.56 0,-35.6 -28.96,-64.56 -64.56,-64.56 z m -28.48,26.88 C 242,218.08 256,228.16 256,242 v 45.2 L 241.12,282 c 0,0 23.6,-56.24 -14.16,-56.24 -14.88,0 -24.64,7.6 -24.64,7.6 6.32,-10.4 15.84,-14.88 25.2,-15.04 z m -1.68,15.44 c 8.08,-0.08 15.92,3.68 18.32,13.76 h -10 c 0.24,0.56 0.4,1.2 0.4,1.84 0,3.68 -4.56,6.64 -10.24,6.64 -5.6,0 -10.16,-2.96 -10.16,-6.64 0,-0.64 0.16,-1.28 0.4,-1.84 h -10 c 0,-6.56 8.56,-12.32 17.76,-13.52 z m 60.32,0 c 10.48,0.08 21.28,6.4 21.28,13.76 h -10 c 0.24,0.56 0.4,1.2 0.4,1.84 0,3.68 -4.56,6.64 -10.16,6.64 -5.68,0 -10.24,-2.96 -10.24,-6.64 0,-0.64 0.16,-1.28 0.4,-1.84 h -10 c 2.16,-9.36 9.12,-13.28 16.64,-13.68 z m -35.84,61.36 c 1.76,0 3.52,0.56 5.68,2.4 6.8,-5.92 10.16,1.12 21.44,1.12 0,0 -8.48,6.88 -21.44,6.88 -12.96,0 -21.44,-6.88 -21.44,-6.88 7.76,0 11.76,-3.36 15.76,-3.52 z"
       inkscape:connector-curvature="0"
       style="fill:#000000;fill-opacity:1;stroke-width:0.80000001"
       sodipodi:nodetypes="ssssscsccscccccssscccccccssscccccccscc" />
  </g>
</svg>
