<?xml version="1.0" encoding="UTF-8" standalone="no"?>
<svg
   xmlns:dc="http://purl.org/dc/elements/1.1/"
   xmlns:cc="http://creativecommons.org/ns#"
   xmlns:rdf="http://www.w3.org/1999/02/22-rdf-syntax-ns#"
   xmlns:svg="http://www.w3.org/2000/svg"
   xmlns="http://www.w3.org/2000/svg"
   xmlns:sodipodi="http://sodipodi.sourceforge.net/DTD/sodipodi-0.dtd"
   xmlns:inkscape="http://www.inkscape.org/namespaces/inkscape"
   style="height: 512px; width: 512px;"
   viewBox="0 0 512 512"
   version="1.1"
   id="svg8"
   sodipodi:docname="magic-shield.svg"
   inkscape:version="0.92.5 (2060ec1f9f, 2020-04-08)">
  <metadata
     id="metadata14">
    <rdf:RDF>
      <cc:Work
         rdf:about="">
        <dc:format>image/svg+xml</dc:format>
        <dc:type
           rdf:resource="http://purl.org/dc/dcmitype/StillImage" />
      </cc:Work>
    </rdf:RDF>
  </metadata>
  <defs
     id="defs12" />
  <sodipodi:namedview
     pagecolor="#ffffff"
     bordercolor="#666666"
     borderopacity="1"
     objecttolerance="10"
     gridtolerance="10"
     guidetolerance="10"
     inkscape:pageopacity="0"
     inkscape:pageshadow="2"
     inkscape:window-width="1848"
     inkscape:window-height="1016"
     id="namedview10"
     showgrid="false"
     inkscape:zoom="0.29204236"
     inkscape:cx="815.7275"
     inkscape:cy="146.27638"
     inkscape:window-x="72"
     inkscape:window-y="27"
     inkscape:window-maximized="1"
     inkscape:current-layer="svg8"
     showguides="true"
     inkscape:guide-bbox="true">
    <sodipodi:guide
       position="256.45703,333.99902"
       orientation="0,1"
       id="guide863"
       inkscape:locked="false" />
    <sodipodi:guide
       position="334.178,253.57143"
       orientation="1,0"
       id="guide865"
       inkscape:locked="false"
       inkscape:label=""
       inkscape:color="rgb(0,0,255)" />
    <sodipodi:guide
       position="301.781,256"
       orientation="0,1"
       id="guide835"
       inkscape:locked="false"
       inkscape:label=""
       inkscape:color="rgb(0,0,255)" />
    <sodipodi:guide
       position="549.57781,1273.7878"
       orientation="0,1"
       id="guide845"
       inkscape:locked="false" />
    <sodipodi:guide
       position="263.91596,741.50699"
       orientation="0,1"
       id="guide847"
       inkscape:locked="false" />
  </sodipodi:namedview>
  <g
     class=""
     transform="translate(5.1953135,-561.03809)"
     id="g6">
    <path
       style="fill:#000000;fill-opacity:1;stroke-width:1.10000002"
       d="m 29.068358,568.36524 c -1.668627,31.99275 -2.411889,61.16745 -2.492187,88.34571 7.216,-2.98761 15.074062,-4.76758 23.351562,-4.76758 34.36951,0 62.570307,28.20445 62.570307,62.57617 0,34.37063 -28.353697,61.92969 -62.570307,61.92969 -6.6748,0 -13.146481,-1.10318 -19.238281,-3.04688 13.91721,135.61358 53.691439,183.49654 97.255858,211.60156 22.74471,14.67401 47.2851,23.87079 70.69531,36.57029 19.18841,10.4093 37.59481,23.6765 52.16211,44.1387 14.55301,-20.4567 32.91773,-33.7224 52.05664,-44.1328 23.34861,-12.6995 47.80629,-21.89461 70.4707,-36.56642 43.40602,-28.09732 83.03556,-75.97716 96.94727,-211.55664 -5.85199,1.8788 -12.07136,2.99414 -18.59766,2.99414 -34.21771,0 -62.56836,-27.56346 -62.56836,-61.92969 0,-34.36842 28.19775,-62.57617 62.56836,-62.57617 8.39299,0 16.22001,1.86688 23.35352,4.95898 -0.077,-27.23271 -0.82019,-56.46744 -2.49219,-88.53906 -65.43683,14.30001 -143.85836,21.19276 -221.65039,21.87696 h -0.17773 c -77.7891,-0.682 -156.208076,-7.57722 -221.644532,-21.87696 z m 221.736322,94.50977 38.57422,110.97461 117.46289,2.39258 -93.62304,70.98046 34.02148,112.45313 -96.43555,-67.10742 -96.43554,67.10742 34.02148,-112.45313 -93.623046,-70.98046 117.462886,-2.39258 z"
       id="path4"
       inkscape:connector-curvature="0" />
  </g>
  <path
     style="fill:#000000;fill-opacity:1;stroke-width:1.10000002"
     d="m -672.23967,46.926211 c -1.66863,31.99275 -2.41189,61.167449 -2.49219,88.345699 7.216,-2.9876 15.07211,-4.76562 23.34961,-4.76562 34.36951,0 62.57227,28.20445 62.57227,62.57617 0,34.37063 -28.35566,61.92969 -62.57227,61.92969 -6.6748,0 -13.14453,-1.10318 -19.23633,-3.04688 13.91721,135.61358 53.69143,183.49459 97.25586,211.59961 22.74471,14.67401 47.28511,23.87082 70.69532,36.57032 19.18841,10.40932 37.59481,23.67841 52.16211,44.14062 14.55301,-20.45671 32.91773,-33.72434 52.05664,-44.13476 23.34861,-12.6995 47.80434,-21.8946 70.46875,-36.56641 43.40602,-28.09732 83.03751,-75.97716 96.94922,-211.55664 -5.85199,1.8788 -12.07136,2.99609 -18.59766,2.99609 -34.21771,0 -62.56836,-27.56345 -62.56836,-61.92968 0,-34.36843 28.19775,-62.57813 62.56836,-62.57813 8.39299,0 16.22001,1.86688 23.35352,4.95898 -0.077,-27.23271 -0.82019,-56.467439 -2.49219,-88.539059 -147.80219,26.79746 -297.3684,31.07332 -443.47266,0 z m 222.65235,37.990234 c 34.84079,38.439735 -12.02115,84.215195 8.04101,126.636715 l 27.10547,-42.65234 2.52734,53.44922 43.11133,-30.24805 -18.14844,50.38672 51.45704,-11.33594 -30.2461,33.23438 c 46.09705,-3.36922 72.75011,50.31005 114.09961,31.39648 -38.43972,34.84079 -72.21323,-12.02309 -114.63476,8.03907 l 42.65039,27.10742 -53.44727,2.52734 30.24609,43.10742 -50.38476,-18.14453 11.33203,51.76367 -33.23242,-30.63086 c 3.36922,45.9439 -50.3081,85.13097 -31.39453,126.48047 -34.84079,-39.05231 12.02115,-84.36477 -8.04102,-126.93945 l -27.10742,42.57422 -2.52539,-53.37109 -43.11133,30.24609 18.14844,-50.38477 -51.45899,11.33399 30.32422,-33.23438 c -46.15831,3.36922 -74.80345,-50.3081 -116.18359,-31.39453 38.47801,-34.84079 74.24402,12.0231 116.64258,-8.03906 l -42.64258,-27.10938 53.43945,-2.52539 -30.24609,-43.11132 50.38476,18.14843 -11.33203,-51.45703 33.23242,30.32031 c -3.36922,-46.17361 50.30811,-84.82431 31.39454,-126.173825 z m -0.91602,164.902345 a 45.781204,45.781204 0 0 0 -45.78125,45.78125 45.781204,45.781204 0 0 0 45.78125,45.78125 45.781204,45.781204 0 0 0 45.78125,-45.78125 45.781204,45.781204 0 0 0 -45.78125,-45.78125 z"
     id="path837"
     inkscape:connector-curvature="0" />
  <g
     id="g4"
     class=""
     transform="matrix(0.7657316,0,0,0.7657316,65.624749,-501.34302)"
     style="fill:#aa0000;fill-opacity:1" />
  <g
     class=""
     transform="translate(503.8956,-303.89698)"
     id="g872">
    <path
       sodipodi:nodetypes="ccssscccccccsssccccccccccccccccccccccccccccccccccccsssss"
       inkscape:connector-curvature="0"
       id="path870"
       transform="translate(-5.1948052,561.03896)"
       d="m 39.458984,-553.71289 c -1.668627,31.99275 -2.411889,61.16745 -2.492187,88.3457 7.216,-2.9876 15.072109,-4.76562 23.349609,-4.76562 34.36951,0 62.572264,28.20445 62.572264,62.57617 0,34.37063 -28.355654,61.92969 -62.572264,61.92969 -6.6748,0 -13.144528,-1.10318 -19.236328,-3.04688 13.91721,135.61358 53.691437,183.49654 97.255862,211.60156 22.74471,14.67401 47.2851,23.86886 70.69531,36.56836 19.18841,10.409318 37.59481,23.678419 52.16211,44.140629 14.55301,-20.45671 32.91773,-33.724353 52.05664,-44.134769 23.34861,-12.6995 47.80434,-21.89459 70.46875,-36.5664 43.40602,-28.09732 83.03751,-75.97716 96.94922,-211.55664 -5.85199,1.8788 -12.07136,2.99609 -18.59766,2.99609 -34.21771,0 -62.56836,-27.56346 -62.56836,-61.92969 0,-34.36842 28.19775,-62.57812 62.56836,-62.57812 8.39299,0 16.22001,1.86688 23.35352,4.95898 -0.077,-27.23271 -0.82019,-56.46744 -2.49219,-88.53906 -147.80219,26.79746 -297.3684,31.07332 -443.472656,0 z m 222.652346,37.99023 c 34.84079,38.43973 -12.02115,84.21519 8.04101,126.63672 l 27.10547,-42.65234 2.52735,53.44922 43.11132,-30.24805 -18.14843,50.38672 51.45703,-11.33399 -30.2461,33.23243 c 46.09705,-3.36922 72.75011,50.31005 114.09961,31.39648 -38.43972,34.84079 -72.21323,-12.0231 -114.63476,8.03906 l 42.65039,27.10743 -53.44727,2.52734 30.2461,43.10937 -50.38477,-18.14648 11.33203,51.76367 -33.23242,-30.63086 c 3.36922,45.9439 -50.3081,85.13292 -31.39453,126.482424 -34.84079,-39.052314 12.02115,-84.366724 -8.04102,-126.941404 l -27.10742,42.57422 -2.52539,-53.3711 -43.11133,30.2461 18.14844,-50.38477 -51.45898,11.33399 30.32422,-33.23438 c -46.15831,3.36922 -74.80346,-50.3081 -116.183599,-31.39453 38.478013,-34.84079 74.244019,12.0231 116.642579,-8.03906 l -42.64258,-27.10743 53.43945,-2.52734 -30.24609,-43.11133 50.38477,18.14844 -11.33203,-51.45703 33.23242,30.32226 c -3.36922,-46.17361 50.3081,-84.82627 31.39453,-126.17578 z m -0.45899,132.68555 c -42.88097,0 -77.72265,34.83973 -77.72265,77.7207 0,42.88097 34.84168,77.72266 77.72265,77.72266 42.88097,0 77.72097,-34.84169 77.72097,-77.72266 0,-42.88097 -34.84,-77.7207 -77.72097,-77.7207 z"
       style="fill:#000000;fill-opacity:1;stroke-width:1.10000002" />
  </g>
  <circle
     r="45.781204"
     cy="-69.09407"
     cx="788.61963"
     id="circle874"
     style="fill:#aa0000;fill-opacity:1;stroke:none;stroke-width:1.20500004;stroke-miterlimit:4;stroke-dasharray:none;stroke-opacity:1" />
  <path
     inkscape:connector-curvature="0"
     style="fill:#000000;fill-opacity:1;stroke-width:1.10000002"
     d="m 39.458984,-553.71191 c -1.66863,31.99275 -2.41189,61.16745 -2.49219,88.3457 7.216,-2.9876 15.07211,-4.76562 23.34961,-4.76562 34.36951,0 62.572256,28.20444 62.572256,62.57616 0,34.37063 -28.355646,61.92969 -62.572256,61.92969 -6.6748,0 -13.144529,-1.10318 -19.23633,-3.04688 13.91721,135.61358 53.69143,183.49459 97.255856,211.59961 22.74471,14.67401 47.28511,23.87082 70.69532,36.57032 19.18841,10.409324 37.59481,23.678414 52.16211,44.140624 14.55301,-20.45671 32.91773,-33.72434 52.05664,-44.134764 23.34861,-12.6995 47.80434,-21.8946 70.46875,-36.56641 43.40602,-28.09732 83.03751,-75.97716 96.94922,-211.55664 -5.85199,1.8788 -12.07136,2.99609 -18.59766,2.99609 -34.21771,0 -62.56836,-27.56345 -62.56836,-61.92968 0,-34.36843 28.19775,-62.57812 62.56836,-62.57812 8.39299,0 16.22001,1.86688 23.35352,4.95898 -0.077,-27.23271 -0.82019,-56.46744 -2.49219,-88.53907 -147.80219,26.79747 -297.3684,31.07333 -443.472656,10e-6 z m 222.652346,37.99023 c 46.90159,63.49796 -29.76213,134.36852 28.24108,155.50232 l 72.54407,-68.31678 -53.76232,83.46885 15.95884,16.47611 c 34.68283,-2.53496 93.61609,42.65025 134.96559,23.73668 -61.87888,44.97005 -122.83326,-28.47127 -143.49166,28.23093 l 68.30611,72.55032 -83.45819,-53.76857 -16.47757,15.90006 c 2.53496,34.5676 -42.65749,105.98776 -23.74392,147.337264 -46.85905,-63.728454 29.78918,-134.669264 -28.22222,-155.806024 l -72.56294,68.31579 53.78118,-83.46787 -15.90153,-16.47757 c -34.72892,2.53496 -95.66944,-42.64782 -137.049575,-23.73425 62.181645,-45.29243 124.783405,28.68045 145.518335,-28.2319 l -68.32497,-72.55325 83.47705,53.7715 16.47757,-15.903 c -2.53496,-34.74043 42.63864,-105.6811 23.72507,-147.03061 z"
     id="path837-3"
     sodipodi:nodetypes="ccssscccccccssscccccccccccccccccccccccc" />
</svg>
