<?xml version="1.0" encoding="UTF-8" standalone="no"?>
<svg
   xmlns:dc="http://purl.org/dc/elements/1.1/"
   xmlns:cc="http://creativecommons.org/ns#"
   xmlns:rdf="http://www.w3.org/1999/02/22-rdf-syntax-ns#"
   xmlns:svg="http://www.w3.org/2000/svg"
   xmlns="http://www.w3.org/2000/svg"
   xmlns:sodipodi="http://sodipodi.sourceforge.net/DTD/sodipodi-0.dtd"
   xmlns:inkscape="http://www.inkscape.org/namespaces/inkscape"
   style="height: 512px; width: 512px;"
   viewBox="0 0 512 512"
   version="1.1"
   id="svg6"
   sodipodi:docname="sabers-choc-tiny.svg"
   inkscape:version="0.92.5 (2060ec1f9f, 2020-04-08)">
  <metadata
     id="metadata12">
    <rdf:RDF>
      <cc:Work
         rdf:about="">
        <dc:format>image/svg+xml</dc:format>
        <dc:type
           rdf:resource="http://purl.org/dc/dcmitype/StillImage" />
      </cc:Work>
    </rdf:RDF>
  </metadata>
  <defs
     id="defs10" />
  <sodipodi:namedview
     pagecolor="#ffffff"
     bordercolor="#666666"
     borderopacity="1"
     objecttolerance="10"
     gridtolerance="10"
     guidetolerance="10"
     inkscape:pageopacity="0"
     inkscape:pageshadow="2"
     inkscape:window-width="1848"
     inkscape:window-height="1016"
     id="namedview8"
     showgrid="false"
     inkscape:zoom="1.5448608"
     inkscape:cx="333.6769"
     inkscape:cy="256"
     inkscape:window-x="72"
     inkscape:window-y="27"
     inkscape:window-maximized="1"
     inkscape:current-layer="svg6" />
  <g
     class=""
     style=""
     transform="translate(0,0)"
     id="g4">
    <path
       d="m 286.313,15.688 -27.344,93.437 -99.345,-81.188 2.844,59.626 -62.5,-71.313 55.405,155.094 -109.843,-17.688 71.44,67.813 -99.5,41.81 113.968,24.095 -66.875,97.75 86.718,0.47 0.27,-0.16 -53.226,76.985 98.78,-66.066 25.552,94.302 60.843,-105.905 51.313,99.97 -20.25,-102.876 114.967,42.656 -41,-125.594 74.22,-90 -88.25,-9.03 98,-112.19 -118.53,76.5 12.436,-120.25 -70.625,74.97 -9.467,-103.22 z m -74.22,82.218 c 2.76512,37.07496 37.71416,84.33962 48.438,99.25 27.253,-31.716 47.06,-57.5 66.283,-87.875 9.52,26.452 7.513,93.21 -27.032,137.75 14.97,18.868 22.62,29.58 41.033,47.97 l 13.78,-11.78 13.22,13.217 -23.657,23.657 42.03,42.03 -13.217,13.22 -42.033,-42.03 -23.656,23.655 -13.217,-13.22 12.187,-12.188 c -17.205,-16.823 -24.137,-25.352 -39.97,-44.937 -12.22,12.986 -18.73,18.26 -30.56,26.563 5.864,14.06 -6.062,21.497 -21.75,37.187 l -23.657,-23.688 -48.657,48.657 -13.22,-13.22 48.626,-48.624 -23.625,-23.656 c 15.812,-15.81 25.026,-26.877 40.094,-19.688 12.003,-11.6 18.51,-18.447 31.032,-32.062 -12.025,-16.877 -13,-24.274 -22.468,-41.844 -23.307,-43.25 -25.733,-81.31 10,-98.344 z"
       id="path2"
       inkscape:connector-curvature="0"
       style="fill:#000000;fill-opacity:1"
       sodipodi:nodetypes="cccccccccccccccccccccccccccccccccccccccccccccccccccccccc" />
  </g>
</svg>
