<?xml version="1.0" encoding="UTF-8" standalone="no"?>
<svg
   xmlns:dc="http://purl.org/dc/elements/1.1/"
   xmlns:cc="http://creativecommons.org/ns#"
   xmlns:rdf="http://www.w3.org/1999/02/22-rdf-syntax-ns#"
   xmlns:svg="http://www.w3.org/2000/svg"
   xmlns="http://www.w3.org/2000/svg"
   xmlns:sodipodi="http://sodipodi.sourceforge.net/DTD/sodipodi-0.dtd"
   xmlns:inkscape="http://www.inkscape.org/namespaces/inkscape"
   style="height: 512px; width: 512px;"
   viewBox="0 0 512 512"
   version="1.1"
   id="svg8"
   sodipodi:docname="sands-of-time.svg"
   inkscape:version="0.92.5 (2060ec1f9f, 2020-04-08)">
  <metadata
     id="metadata14">
    <rdf:RDF>
      <cc:Work
         rdf:about="">
        <dc:format>image/svg+xml</dc:format>
        <dc:type
           rdf:resource="http://purl.org/dc/dcmitype/StillImage" />
      </cc:Work>
    </rdf:RDF>
  </metadata>
  <defs
     id="defs12" />
  <sodipodi:namedview
     pagecolor="#ffffff"
     bordercolor="#666666"
     borderopacity="1"
     objecttolerance="10"
     gridtolerance="10"
     guidetolerance="10"
     inkscape:pageopacity="0"
     inkscape:pageshadow="2"
     inkscape:window-width="1848"
     inkscape:window-height="1016"
     id="namedview10"
     showgrid="false"
     inkscape:zoom="2.1847632"
     inkscape:cx="217.1607"
     inkscape:cy="308.40749"
     inkscape:window-x="72"
     inkscape:window-y="27"
     inkscape:window-maximized="1"
     inkscape:current-layer="svg8" />
  <path
     d="M0 0h512v512H0z"
     fill="#000000"
     fill-opacity="0.01"
     id="path2" />
  <g
     class=""
     style=""
     transform="translate(0,0)"
     id="g6">
    <path
       d="m 115.063,21.97 v 9.343 c 0,101.953 38.158,189.648 96.343,222.093 v 6.094 c -58.186,32.445 -96.344,120.14 -96.344,222.094 v 9.344 H 401.81 v -9.344 c 0,-102.552 -38.804,-190.274 -97.53,-222.188 V 253.5 C 363.002,221.583 401.81,133.86 401.81,31.312 V 21.97 H 115.06 Z M 134,40.655 h 248.875 c -2.477,96.445 -42.742,175.523 -91.938,198.906 l -5.343,2.532 v 28.751 l 5.344,2.53 c 49.193,23.383 89.456,102.438 91.937,198.876 H 134 c 2.456,-95.898 42.125,-175.078 90.875,-198.938 l 5.25,-2.562 v -28.594 l -5.25,-2.562 C 176.127,215.734 136.455,136.554 134,40.656 Z m 219.656,66.125 -189.562,4.095 C 178.748,161.78 213.91,218.012 248.22,224 c -1.54,2.047 -2.47,4.585 -2.47,7.344 0,6.76 5.488,12.25 12.25,12.25 6.762,0 12.25,-5.49 12.25,-12.25 0,-2.72 -0.907,-5.218 -2.406,-7.25 35.426,-5.88 71.488,-64.07 85.812,-117.313 z M 258,258.626 c -6.762,0 -12.25,5.488 -12.25,12.25 0,6.762 5.488,12.25 12.25,12.25 6.762,0 12.25,-5.488 12.25,-12.25 0,-6.762 -5.488,-12.25 -12.25,-12.25 z m 0,39.28 c -6.762,0 -12.25,5.49 -12.25,12.25 0,6.763 5.488,12.25 12.25,12.25 6.762,0 12.25,-5.487 12.25,-12.25 0,-6.76 -5.488,-12.25 -12.25,-12.25 z m 0.125,79.439 c -23.21,0.28 -66.19,25.77 -95.813,75.656 h 193 c -30.523,-51.003 -73.977,-75.936 -97.187,-75.656 z"
       id="path4"
       inkscape:connector-curvature="0"
       style="fill:#000000;fill-opacity:1"
       sodipodi:nodetypes="csccsccsccsccccccccccccccccccccssscccsssssssssssccs" />
  </g>
</svg>
