<?xml version="1.0" encoding="UTF-8" standalone="no"?>
<svg
   xmlns:dc="http://purl.org/dc/elements/1.1/"
   xmlns:cc="http://creativecommons.org/ns#"
   xmlns:rdf="http://www.w3.org/1999/02/22-rdf-syntax-ns#"
   xmlns:svg="http://www.w3.org/2000/svg"
   xmlns="http://www.w3.org/2000/svg"
   xmlns:sodipodi="http://sodipodi.sourceforge.net/DTD/sodipodi-0.dtd"
   xmlns:inkscape="http://www.inkscape.org/namespaces/inkscape"
   viewBox="0 0 710 450"
   version="1.1"
   id="svg6"
   sodipodi:docname="heraldic-sun (copy).svg"
   inkscape:version="0.92.5 (2060ec1f9f, 2020-04-08)"
   width="710"
   height="450">
  <metadata
     id="metadata12">
    <rdf:RDF>
      <cc:Work
         rdf:about="">
        <dc:format>image/svg+xml</dc:format>
        <dc:type
           rdf:resource="http://purl.org/dc/dcmitype/StillImage" />
        <dc:title />
      </cc:Work>
    </rdf:RDF>
  </metadata>
  <defs
     id="defs10" />
  <sodipodi:namedview
     pagecolor="#ffffff"
     bordercolor="#666666"
     borderopacity="1"
     objecttolerance="10"
     gridtolerance="10"
     guidetolerance="10"
     inkscape:pageopacity="0"
     inkscape:pageshadow="2"
     inkscape:window-width="1848"
     inkscape:window-height="1016"
     id="namedview8"
     showgrid="false"
     inkscape:zoom="1.0727539"
     inkscape:cx="-247.62102"
     inkscape:cy="165.27469"
     inkscape:window-x="72"
     inkscape:window-y="27"
     inkscape:window-maximized="1"
     inkscape:current-layer="svg6"
     showguides="true"
     inkscape:guide-bbox="true"
     scale-x="1"
     viewbox-x="200"
     inkscape:pagecheckerboard="false">
    <sodipodi:guide
       position="0,0"
       orientation="0,1"
       id="guide818"
       inkscape:locked="false"
       inkscape:label=""
       inkscape:color="rgb(0,0,255)" />
    <sodipodi:guide
       position="0,0"
       orientation="1,0"
       id="guide826"
       inkscape:locked="false"
       inkscape:label=""
       inkscape:color="rgb(0,0,255)" />
    <sodipodi:guide
       position="710,0"
       orientation="1,0"
       id="guide842"
       inkscape:locked="false"
       inkscape:label=""
       inkscape:color="rgb(0,0,255)" />
    <sodipodi:guide
       position="0,450"
       orientation="0,1"
       id="guide844"
       inkscape:locked="false"
       inkscape:label=""
       inkscape:color="rgb(0,0,255)" />
    <sodipodi:guide
       position="355,0"
       orientation="1,0"
       id="guide850"
       inkscape:locked="false"
       inkscape:label=""
       inkscape:color="rgb(0,0,255)" />
    <sodipodi:guide
       position="0,225"
       orientation="0,1"
       id="guide852"
       inkscape:locked="false"
       inkscape:label=""
       inkscape:color="rgb(0,0,255)" />
    <sodipodi:guide
       position="30,0"
       orientation="1,0"
       inkscape:locked="false"
       id="guide862"
       inkscape:label=""
       inkscape:color="rgb(0,0,255)" />
    <sodipodi:guide
       position="0,30"
       orientation="0,1"
       inkscape:locked="false"
       id="guide864"
       inkscape:label=""
       inkscape:color="rgb(0,0,255)" />
    <sodipodi:guide
       position="0,420"
       orientation="0,1"
       inkscape:locked="false"
       id="guide866"
       inkscape:label=""
       inkscape:color="rgb(0,0,255)" />
    <sodipodi:guide
       position="680,0"
       orientation="1,0"
       inkscape:locked="false"
       id="guide868"
       inkscape:label=""
       inkscape:color="rgb(0,0,255)" />
  </sodipodi:namedview>
  <path
     style="fill:none;stroke:#000000;stroke-width:1px;stroke-linecap:butt;stroke-linejoin:miter;stroke-opacity:1"
     d="M -328,0 V 450"
     id="path846"
     inkscape:connector-curvature="0" />
  <path
     style="fill:none;stroke:#000000;stroke-width:1px;stroke-linecap:butt;stroke-linejoin:miter;stroke-opacity:1"
     d="M 0,754 H 710"
     id="path848"
     inkscape:connector-curvature="0" />
  <path
     style="fill:none;stroke:#000000;stroke-width:1px;stroke-linecap:butt;stroke-linejoin:miter;stroke-opacity:1"
     d="M -438,0 V 225"
     id="path854"
     inkscape:connector-curvature="0" />
  <path
     style="fill:none;stroke:#000000;stroke-width:1px;stroke-linecap:butt;stroke-linejoin:miter;stroke-opacity:1"
     d="M -196,225 V 450"
     id="path856"
     inkscape:connector-curvature="0" />
  <path
     style="fill:none;stroke:#000000;stroke-width:1px;stroke-linecap:butt;stroke-linejoin:miter;stroke-opacity:1"
     d="M 0,624 H 355"
     id="path858"
     inkscape:connector-curvature="0" />
  <path
     style="fill:none;stroke:#000000;stroke-width:1px;stroke-linecap:butt;stroke-linejoin:miter;stroke-opacity:1"
     d="M 355,852 H 710"
     id="path860"
     inkscape:connector-curvature="0" />
  <path
     style="fill:none;stroke:#000000;stroke-width:1px;stroke-linecap:butt;stroke-linejoin:miter;stroke-opacity:1"
     d="M 355,790 H 680"
     id="path870"
     inkscape:connector-curvature="0" />
  <path
     style="fill:none;stroke:#000000;stroke-width:1px;stroke-linecap:butt;stroke-linejoin:miter;stroke-opacity:1"
     d="M 30,655 H 355"
     id="path872"
     inkscape:connector-curvature="0" />
  <path
     style="fill:none;stroke:#000000;stroke-width:1px;stroke-linecap:butt;stroke-linejoin:miter;stroke-opacity:1"
     d="M -243,225 V 420"
     id="path874"
     inkscape:connector-curvature="0" />
  <path
     style="fill:none;stroke:#000000;stroke-width:1px;stroke-linecap:butt;stroke-linejoin:miter;stroke-opacity:1"
     d="M -373,30 V 225"
     id="path876"
     inkscape:connector-curvature="0" />
  <g
     id="g940-3-8"
     class=""
     transform="matrix(0.71463294,0,0,0.71463294,-463.11372,534.99343)" />
  <g
     id="g839"
     class=""
     transform="matrix(0.89921423,0,0,0.89921423,125.70666,-13.114626)">
    <path
       id="path837"
       d="m 26.996,47.947 c 11.726,44.806 56.176,129.96 67.496,242.934 -6.597,76.494 -22.66,98.81 -22.66,152.74 0,27.602 11.33,38.038 23.254,38.038 11.662,0 23.72,-11.823 23.72,-40.896 0,-56.606 -16.937,-73.84 -23.283,-151.65 6.472,-83.65 59.715,-45.933 59.715,2.765 0,-112.652 101.99,-85.16 116.024,-34.77 -5.164,35.11 -15.028,45.947 -15.028,75.368 0,16.633 8.51,28.86 16.74,28.86 8.416,0 16.41,-11.433 16.41,-27.226 0,-27.953 -9.303,-41.066 -14.515,-75.825 15.447,-37.68 115.544,-34.583 115.845,-1.754 -3.41,26.414 -12.764,32.13 -12.764,51.16 0,9.714 6.58,16.855 12.943,16.855 6.506,0 12.685,-6.677 12.685,-15.9 0,-18.435 -9.164,-25.838 -12.596,-52.854 14.138,-49.16 86.57,-19.867 92.008,-73.298 -51.22,45.91 -357.175,26.76 -455.994,-134.545 z m 128.85,266.22 c -4.676,31.802 -17.635,40.28 -17.635,61.724 0,10.642 8.592,18.346 17.636,18.346 8.844,0 17.988,-8.24 17.988,-19.45 0,-22.338 -13.464,-28.757 -17.988,-60.62 z"
       inkscape:connector-curvature="0"
       style="fill:#000000;fill-opacity:1" />
  </g>
</svg>
