<?xml version="1.0" encoding="UTF-8" standalone="no"?>
<svg
   xmlns:dc="http://purl.org/dc/elements/1.1/"
   xmlns:cc="http://creativecommons.org/ns#"
   xmlns:rdf="http://www.w3.org/1999/02/22-rdf-syntax-ns#"
   xmlns:svg="http://www.w3.org/2000/svg"
   xmlns="http://www.w3.org/2000/svg"
   xmlns:sodipodi="http://sodipodi.sourceforge.net/DTD/sodipodi-0.dtd"
   xmlns:inkscape="http://www.inkscape.org/namespaces/inkscape"
   viewBox="0 0 710 450"
   version="1.1"
   id="svg6"
   sodipodi:docname="card-play (copy).svg"
   inkscape:version="0.92.5 (2060ec1f9f, 2020-04-08)"
   width="710"
   height="450">
  <metadata
     id="metadata12">
    <rdf:RDF>
      <cc:Work
         rdf:about="">
        <dc:format>image/svg+xml</dc:format>
        <dc:type
           rdf:resource="http://purl.org/dc/dcmitype/StillImage" />
        <dc:title />
      </cc:Work>
    </rdf:RDF>
  </metadata>
  <defs
     id="defs10" />
  <sodipodi:namedview
     pagecolor="#ffffff"
     bordercolor="#666666"
     borderopacity="1"
     objecttolerance="10"
     gridtolerance="10"
     guidetolerance="10"
     inkscape:pageopacity="0"
     inkscape:pageshadow="2"
     inkscape:window-width="1848"
     inkscape:window-height="1016"
     id="namedview8"
     showgrid="false"
     inkscape:zoom="1.8672038"
     inkscape:cx="-34.305032"
     inkscape:cy="6.4389909"
     inkscape:window-x="72"
     inkscape:window-y="27"
     inkscape:window-maximized="1"
     inkscape:current-layer="svg6"
     showguides="true"
     inkscape:guide-bbox="true"
     scale-x="1"
     viewbox-x="200"
     inkscape:pagecheckerboard="false">
    <sodipodi:guide
       position="0,0"
       orientation="0,1"
       id="guide818"
       inkscape:locked="false"
       inkscape:label=""
       inkscape:color="rgb(0,0,255)" />
    <sodipodi:guide
       position="0,0"
       orientation="1,0"
       id="guide826"
       inkscape:locked="false"
       inkscape:label=""
       inkscape:color="rgb(0,0,255)" />
    <sodipodi:guide
       position="710,0"
       orientation="1,0"
       id="guide842"
       inkscape:locked="false"
       inkscape:label=""
       inkscape:color="rgb(0,0,255)" />
    <sodipodi:guide
       position="0,450"
       orientation="0,1"
       id="guide844"
       inkscape:locked="false"
       inkscape:label=""
       inkscape:color="rgb(0,0,255)" />
    <sodipodi:guide
       position="355,0"
       orientation="1,0"
       id="guide850"
       inkscape:locked="false"
       inkscape:label=""
       inkscape:color="rgb(0,0,255)" />
    <sodipodi:guide
       position="0,225"
       orientation="0,1"
       id="guide852"
       inkscape:locked="false"
       inkscape:label=""
       inkscape:color="rgb(0,0,255)" />
    <sodipodi:guide
       position="30,0"
       orientation="1,0"
       inkscape:locked="false"
       id="guide862"
       inkscape:label=""
       inkscape:color="rgb(0,0,255)" />
    <sodipodi:guide
       position="0,30"
       orientation="0,1"
       inkscape:locked="false"
       id="guide864"
       inkscape:label=""
       inkscape:color="rgb(0,0,255)" />
    <sodipodi:guide
       position="0,420"
       orientation="0,1"
       inkscape:locked="false"
       id="guide866"
       inkscape:label=""
       inkscape:color="rgb(0,0,255)" />
    <sodipodi:guide
       position="680,0"
       orientation="1,0"
       inkscape:locked="false"
       id="guide868"
       inkscape:label=""
       inkscape:color="rgb(0,0,255)" />
  </sodipodi:namedview>
  <path
     style="fill:none;stroke:#000000;stroke-width:1px;stroke-linecap:butt;stroke-linejoin:miter;stroke-opacity:1"
     d="M -328,0 V 450"
     id="path846"
     inkscape:connector-curvature="0" />
  <path
     style="fill:none;stroke:#000000;stroke-width:1px;stroke-linecap:butt;stroke-linejoin:miter;stroke-opacity:1"
     d="M 0,754 H 710"
     id="path848"
     inkscape:connector-curvature="0" />
  <path
     style="fill:none;stroke:#000000;stroke-width:1px;stroke-linecap:butt;stroke-linejoin:miter;stroke-opacity:1"
     d="M -438,0 V 225"
     id="path854"
     inkscape:connector-curvature="0" />
  <path
     style="fill:none;stroke:#000000;stroke-width:1px;stroke-linecap:butt;stroke-linejoin:miter;stroke-opacity:1"
     d="M -196,225 V 450"
     id="path856"
     inkscape:connector-curvature="0" />
  <path
     style="fill:none;stroke:#000000;stroke-width:1px;stroke-linecap:butt;stroke-linejoin:miter;stroke-opacity:1"
     d="M 0,624 H 355"
     id="path858"
     inkscape:connector-curvature="0" />
  <path
     style="fill:none;stroke:#000000;stroke-width:1px;stroke-linecap:butt;stroke-linejoin:miter;stroke-opacity:1"
     d="M 355,852 H 710"
     id="path860"
     inkscape:connector-curvature="0" />
  <path
     style="fill:none;stroke:#000000;stroke-width:1px;stroke-linecap:butt;stroke-linejoin:miter;stroke-opacity:1"
     d="M 355,790 H 680"
     id="path870"
     inkscape:connector-curvature="0" />
  <path
     style="fill:none;stroke:#000000;stroke-width:1px;stroke-linecap:butt;stroke-linejoin:miter;stroke-opacity:1"
     d="M 30,655 H 355"
     id="path872"
     inkscape:connector-curvature="0" />
  <path
     style="fill:none;stroke:#000000;stroke-width:1px;stroke-linecap:butt;stroke-linejoin:miter;stroke-opacity:1"
     d="M -243,225 V 420"
     id="path874"
     inkscape:connector-curvature="0" />
  <path
     style="fill:none;stroke:#000000;stroke-width:1px;stroke-linecap:butt;stroke-linejoin:miter;stroke-opacity:1"
     d="M -373,30 V 225"
     id="path876"
     inkscape:connector-curvature="0" />
  <g
     id="g940-3-8"
     class=""
     transform="matrix(0.71463294,0,0,0.71463294,-463.11372,534.99343)" />
  <g
     id="g839"
     class=""
     transform="matrix(0.81748153,0,0,0.81748153,145.03919,11.504479)">
    <path
       id="path837"
       d="m 256.9,22.74 h -0.5 l 36.6,40.01 104.8,26.06 32,-30.39 C 378.1,30.55 312.5,21.47 256.9,22.74 Z m -25.4,0.55 c -42,1.81 -80.4,8.19 -112.5,19.42 -38.47,13.45 -68.31,34 -82.82,62.99 -24.01,48 -17.3,98.4 -3.49,146.6 l 1.48,5.1 5.21,1.3 c 35.4,9 66.82,21.6 94.52,37.5 43.1,33.5 63.5,74.6 64.8,127.6 0.7,29.9 9.8,62.8 28,75.3 -1.1,-20.2 0.6,-62.9 5.3,-81.2 l 23.9,81.8 24.5,-83.5 c 5,18.7 6.4,62.1 5.3,82.9 18.1,-12.5 27.3,-45.4 28,-75.3 1.3,-51.4 20.6,-91.7 61.1,-124.7 28.9,-17.3 62,-30.8 99.5,-40.4 l 5.2,-1.3 1.5,-5.1 c 13.8,-48.2 20.5,-98.6 -3.5,-146.6 -7.1,-14.25 -17.9,-26.44 -31.6,-36.77 l -34,32.27 -39.8,84.3 15.6,-79.9 -96.1,-23.93 C 259,93.38 234.5,112.8 217.1,142.6 l 59,75.4 -112.2,32.5 c 8.6,17.5 15.2,36.3 19.6,56.6 -37,-29.1 -81.7,-51 -134.16,-65 C 38.22,201.7 33.51,162.7 47.81,125.5 62.3,135.6 76.03,146.1 88.83,157.1 112.8,117.1 144.8,92.38 190.7,76.06 151.8,106.2 127,135.7 113.8,180.6 c 15.8,16.4 29.6,33.9 41,53 l 89.5,-25.9 -49.6,-63.4 2.9,-5.3 c 17.5,-32.7 43.2,-55.75 75.7,-70.08 z M 465.9,125.5 c 14.3,37.2 9.6,76.2 -1.5,116.6 -52.5,14 -97.2,35.9 -134.1,65 25.6,-79.3 80.9,-142.9 135.6,-181.6 z m -149.5,149.4 -59,121.5 -59.1,-121.5 59.1,65.5 c 19.7,-21.8 39.3,-43.7 59,-65.5 z"
       inkscape:connector-curvature="0"
       style="fill:#000000;fill-opacity:1" />
  </g>
</svg>
