<?xml version="1.0" encoding="UTF-8" standalone="no"?>
<svg
   xmlns:dc="http://purl.org/dc/elements/1.1/"
   xmlns:cc="http://creativecommons.org/ns#"
   xmlns:rdf="http://www.w3.org/1999/02/22-rdf-syntax-ns#"
   xmlns:svg="http://www.w3.org/2000/svg"
   xmlns="http://www.w3.org/2000/svg"
   xmlns:sodipodi="http://sodipodi.sourceforge.net/DTD/sodipodi-0.dtd"
   xmlns:inkscape="http://www.inkscape.org/namespaces/inkscape"
   viewBox="0 0 710 450"
   version="1.1"
   id="svg6"
   sodipodi:docname="template.svg"
   inkscape:version="0.92.5 (2060ec1f9f, 2020-04-08)"
   width="710"
   height="450">
  <metadata
     id="metadata12">
    <rdf:RDF>
      <cc:Work
         rdf:about="">
        <dc:format>image/svg+xml</dc:format>
        <dc:type
           rdf:resource="http://purl.org/dc/dcmitype/StillImage" />
        <dc:title></dc:title>
      </cc:Work>
    </rdf:RDF>
  </metadata>
  <defs
     id="defs10" />
  <sodipodi:namedview
     pagecolor="#ffffff"
     bordercolor="#666666"
     borderopacity="1"
     objecttolerance="10"
     gridtolerance="10"
     guidetolerance="10"
     inkscape:pageopacity="0"
     inkscape:pageshadow="2"
     inkscape:window-width="1848"
     inkscape:window-height="1016"
     id="namedview8"
     showgrid="false"
     inkscape:zoom="0.57452426"
     inkscape:cx="57.811316"
     inkscape:cy="-56.221548"
     inkscape:window-x="72"
     inkscape:window-y="27"
     inkscape:window-maximized="1"
     inkscape:current-layer="svg6"
     showguides="true"
     inkscape:guide-bbox="true"
     scale-x="1"
     viewbox-x="200"
     inkscape:pagecheckerboard="false">
    <sodipodi:guide
       position="0,0"
       orientation="0,1"
       id="guide818"
       inkscape:locked="false"
       inkscape:label=""
       inkscape:color="rgb(0,0,255)" />
    <sodipodi:guide
       position="0,0"
       orientation="1,0"
       id="guide826"
       inkscape:locked="false"
       inkscape:label=""
       inkscape:color="rgb(0,0,255)" />
    <sodipodi:guide
       position="710,0"
       orientation="1,0"
       id="guide842"
       inkscape:locked="false"
       inkscape:label=""
       inkscape:color="rgb(0,0,255)" />
    <sodipodi:guide
       position="0,450"
       orientation="0,1"
       id="guide844"
       inkscape:locked="false"
       inkscape:label=""
       inkscape:color="rgb(0,0,255)" />
    <sodipodi:guide
       position="355,0"
       orientation="1,0"
       id="guide850"
       inkscape:locked="false"
       inkscape:label=""
       inkscape:color="rgb(0,0,255)" />
    <sodipodi:guide
       position="0,225"
       orientation="0,1"
       id="guide852"
       inkscape:locked="false"
       inkscape:label=""
       inkscape:color="rgb(0,0,255)" />
    <sodipodi:guide
       position="30,0"
       orientation="1,0"
       inkscape:locked="false"
       id="guide862"
       inkscape:label=""
       inkscape:color="rgb(0,0,255)" />
    <sodipodi:guide
       position="0,30"
       orientation="0,1"
       inkscape:locked="false"
       id="guide864"
       inkscape:label=""
       inkscape:color="rgb(0,0,255)" />
    <sodipodi:guide
       position="0,420"
       orientation="0,1"
       inkscape:locked="false"
       id="guide866"
       inkscape:label=""
       inkscape:color="rgb(0,0,255)" />
    <sodipodi:guide
       position="680,0"
       orientation="1,0"
       inkscape:locked="false"
       id="guide868"
       inkscape:label=""
       inkscape:color="rgb(0,0,255)" />
  </sodipodi:namedview>
  <path
     style="fill:none;stroke:#000000;stroke-width:1px;stroke-linecap:butt;stroke-linejoin:miter;stroke-opacity:1"
     d="M -328,0 V 450"
     id="path846"
     inkscape:connector-curvature="0" />
  <path
     style="fill:none;stroke:#000000;stroke-width:1px;stroke-linecap:butt;stroke-linejoin:miter;stroke-opacity:1"
     d="M 0,754 H 710"
     id="path848"
     inkscape:connector-curvature="0" />
  <path
     style="fill:none;stroke:#000000;stroke-width:1px;stroke-linecap:butt;stroke-linejoin:miter;stroke-opacity:1"
     d="M -438,0 V 225"
     id="path854"
     inkscape:connector-curvature="0" />
  <path
     style="fill:none;stroke:#000000;stroke-width:1px;stroke-linecap:butt;stroke-linejoin:miter;stroke-opacity:1"
     d="M -196,225 V 450"
     id="path856"
     inkscape:connector-curvature="0" />
  <path
     style="fill:none;stroke:#000000;stroke-width:1px;stroke-linecap:butt;stroke-linejoin:miter;stroke-opacity:1"
     d="M 0,624 H 355"
     id="path858"
     inkscape:connector-curvature="0" />
  <path
     style="fill:none;stroke:#000000;stroke-width:1px;stroke-linecap:butt;stroke-linejoin:miter;stroke-opacity:1"
     d="M 355,852 H 710"
     id="path860"
     inkscape:connector-curvature="0" />
  <path
     style="fill:none;stroke:#000000;stroke-width:1px;stroke-linecap:butt;stroke-linejoin:miter;stroke-opacity:1"
     d="M 355,790 H 680"
     id="path870"
     inkscape:connector-curvature="0" />
  <path
     style="fill:none;stroke:#000000;stroke-width:1px;stroke-linecap:butt;stroke-linejoin:miter;stroke-opacity:1"
     d="M 30,655 H 355"
     id="path872"
     inkscape:connector-curvature="0" />
  <path
     style="fill:none;stroke:#000000;stroke-width:1px;stroke-linecap:butt;stroke-linejoin:miter;stroke-opacity:1"
     d="M -243,225 V 420"
     id="path874"
     inkscape:connector-curvature="0" />
  <path
     style="fill:none;stroke:#000000;stroke-width:1px;stroke-linecap:butt;stroke-linejoin:miter;stroke-opacity:1"
     d="M -373,30 V 225"
     id="path876"
     inkscape:connector-curvature="0" />
  <g
     id="g940-3-8"
     class=""
     transform="matrix(0.71463294,0,0,0.71463294,-463.11372,534.99343)" />
  <g
     class=""
     transform="matrix(1.1991873,0,0,1.1991873,48.007734,22.583295)"
     id="g4">
    <path
       d="m 257.617,20.717 c -7.083,-0.011 -14.242,0.448 -21.469,1.347 -31.2,3.87 -59.077,16.346 -82.566,39.51 -18.59,18.323 -30.93,40.783 -33.8,68.274 -3.409,32.99 6.985,61.16 28.118,84.191 6.792,7.386 9.795,14.582 9.608,25.03 -0.297,16.428 0.974,32.882 1.65,50.308 21.027,-12.421 41.214,-24.384 61.674,-36.48 12.176,21.378 24.055,42.27 36.479,63.976 12.148,-21.517 23.894,-42.3 35.826,-63.244 19.753,11.8 39.24,23.46 59.373,35.557 0.514,-16.94 1.733,-32.799 1.246,-48.6 -0.353,-11.07 1.813,-19.676 10.256,-26.223 2.677,-2.083 4.707,-5.356 6.845,-8.308 20.568,-28.606 27.712,-60.348 17.16,-95.498 -9.77,-32.502 -30.771,-54.695 -57.699,-70.362 -23.066,-13.405 -47.403,-19.44 -72.7,-19.478 z m 82.799,105.207 c 17.942,-0.134 26.164,11.07 22.404,30.474 -4.353,22.379 -22.92,38.723 -42.674,37.668 -21.38,-1.139 -38.695,-18.755 -41.025,-41.892 -0.186,-1.811 0.435,-4.598 1.6,-5.547 10.658,-8.605 45.704,-20.593 59.695,-20.703 z m -165.154,0.03 c 13.717,0.865 29.494,7.548 45.084,14.91 2.297,1.107 4.408,2.785 6.763,3.464 5.847,1.651 6.088,6.113 5.25,11.31 -3.76,22.217 -23.004,39.484 -42.785,38.401 -22.433,-1.218 -39.592,-19.269 -41.162,-43.351 -1.083,-16.59 6.766,-24.952 26.85,-24.735 z m 80.615,56.556 c 7.44,18.214 14.42,35.235 21.646,52.93 h -43.187 c 7.144,-17.588 14.152,-34.637 21.54,-52.93 z"
       id="path2"
       inkscape:connector-curvature="0"
       style="fill:#000000;fill-opacity:1"
       sodipodi:nodetypes="ccccccccccccccccccccccccccccccccccccc" />
  </g>
</svg>
