<?xml version="1.0" encoding="UTF-8" standalone="no"?>
<svg
   xmlns:dc="http://purl.org/dc/elements/1.1/"
   xmlns:cc="http://creativecommons.org/ns#"
   xmlns:rdf="http://www.w3.org/1999/02/22-rdf-syntax-ns#"
   xmlns:svg="http://www.w3.org/2000/svg"
   xmlns="http://www.w3.org/2000/svg"
   xmlns:sodipodi="http://sodipodi.sourceforge.net/DTD/sodipodi-0.dtd"
   xmlns:inkscape="http://www.inkscape.org/namespaces/inkscape"
   viewBox="0 0 710 450"
   version="1.1"
   id="svg6"
   sodipodi:docname="template.svg"
   inkscape:version="0.92.5 (2060ec1f9f, 2020-04-08)"
   width="710"
   height="450">
  <metadata
     id="metadata12">
    <rdf:RDF>
      <cc:Work
         rdf:about="">
        <dc:format>image/svg+xml</dc:format>
        <dc:type
           rdf:resource="http://purl.org/dc/dcmitype/StillImage" />
        <dc:title></dc:title>
      </cc:Work>
    </rdf:RDF>
  </metadata>
  <defs
     id="defs10" />
  <sodipodi:namedview
     pagecolor="#ffffff"
     bordercolor="#666666"
     borderopacity="1"
     objecttolerance="10"
     gridtolerance="10"
     guidetolerance="10"
     inkscape:pageopacity="0"
     inkscape:pageshadow="2"
     inkscape:window-width="1848"
     inkscape:window-height="1016"
     id="namedview8"
     showgrid="false"
     inkscape:zoom="0.46680096"
     inkscape:cx="93.34069"
     inkscape:cy="340.00915"
     inkscape:window-x="72"
     inkscape:window-y="27"
     inkscape:window-maximized="1"
     inkscape:current-layer="svg6"
     showguides="true"
     inkscape:guide-bbox="true"
     scale-x="1"
     viewbox-x="200"
     inkscape:pagecheckerboard="false">
    <sodipodi:guide
       position="0,0"
       orientation="0,1"
       id="guide818"
       inkscape:locked="false"
       inkscape:label=""
       inkscape:color="rgb(0,0,255)" />
    <sodipodi:guide
       position="0,0"
       orientation="1,0"
       id="guide826"
       inkscape:locked="false"
       inkscape:label=""
       inkscape:color="rgb(0,0,255)" />
    <sodipodi:guide
       position="710,0"
       orientation="1,0"
       id="guide842"
       inkscape:locked="false"
       inkscape:label=""
       inkscape:color="rgb(0,0,255)" />
    <sodipodi:guide
       position="0,450"
       orientation="0,1"
       id="guide844"
       inkscape:locked="false"
       inkscape:label=""
       inkscape:color="rgb(0,0,255)" />
    <sodipodi:guide
       position="355,0"
       orientation="1,0"
       id="guide850"
       inkscape:locked="false"
       inkscape:label=""
       inkscape:color="rgb(0,0,255)" />
    <sodipodi:guide
       position="0,225"
       orientation="0,1"
       id="guide852"
       inkscape:locked="false"
       inkscape:label=""
       inkscape:color="rgb(0,0,255)" />
    <sodipodi:guide
       position="30,0"
       orientation="1,0"
       inkscape:locked="false"
       id="guide862"
       inkscape:label=""
       inkscape:color="rgb(0,0,255)" />
    <sodipodi:guide
       position="0,30"
       orientation="0,1"
       inkscape:locked="false"
       id="guide864"
       inkscape:label=""
       inkscape:color="rgb(0,0,255)" />
    <sodipodi:guide
       position="0,420"
       orientation="0,1"
       inkscape:locked="false"
       id="guide866"
       inkscape:label=""
       inkscape:color="rgb(0,0,255)" />
    <sodipodi:guide
       position="680,0"
       orientation="1,0"
       inkscape:locked="false"
       id="guide868"
       inkscape:label=""
       inkscape:color="rgb(0,0,255)" />
  </sodipodi:namedview>
  <path
     style="fill:none;stroke:#000000;stroke-width:1px;stroke-linecap:butt;stroke-linejoin:miter;stroke-opacity:1"
     d="M -328,0 V 450"
     id="path846"
     inkscape:connector-curvature="0" />
  <path
     style="fill:none;stroke:#000000;stroke-width:1px;stroke-linecap:butt;stroke-linejoin:miter;stroke-opacity:1"
     d="M 0,754 H 710"
     id="path848"
     inkscape:connector-curvature="0" />
  <path
     style="fill:none;stroke:#000000;stroke-width:1px;stroke-linecap:butt;stroke-linejoin:miter;stroke-opacity:1"
     d="M -438,0 V 225"
     id="path854"
     inkscape:connector-curvature="0" />
  <path
     style="fill:none;stroke:#000000;stroke-width:1px;stroke-linecap:butt;stroke-linejoin:miter;stroke-opacity:1"
     d="M -196,225 V 450"
     id="path856"
     inkscape:connector-curvature="0" />
  <path
     style="fill:none;stroke:#000000;stroke-width:1px;stroke-linecap:butt;stroke-linejoin:miter;stroke-opacity:1"
     d="M 0,624 H 355"
     id="path858"
     inkscape:connector-curvature="0" />
  <path
     style="fill:none;stroke:#000000;stroke-width:1px;stroke-linecap:butt;stroke-linejoin:miter;stroke-opacity:1"
     d="M 355,852 H 710"
     id="path860"
     inkscape:connector-curvature="0" />
  <path
     style="fill:none;stroke:#000000;stroke-width:1px;stroke-linecap:butt;stroke-linejoin:miter;stroke-opacity:1"
     d="M 355,790 H 680"
     id="path870"
     inkscape:connector-curvature="0" />
  <path
     style="fill:none;stroke:#000000;stroke-width:1px;stroke-linecap:butt;stroke-linejoin:miter;stroke-opacity:1"
     d="M 30,655 H 355"
     id="path872"
     inkscape:connector-curvature="0" />
  <path
     style="fill:none;stroke:#000000;stroke-width:1px;stroke-linecap:butt;stroke-linejoin:miter;stroke-opacity:1"
     d="M -243,225 V 420"
     id="path874"
     inkscape:connector-curvature="0" />
  <path
     style="fill:none;stroke:#000000;stroke-width:1px;stroke-linecap:butt;stroke-linejoin:miter;stroke-opacity:1"
     d="M -373,30 V 225"
     id="path876"
     inkscape:connector-curvature="0" />
  <g
     id="g940-3-8"
     class=""
     transform="matrix(0.71463294,0,0,0.71463294,-463.11372,534.99343)" />
  <g
     id="g99"
     class=""
     transform="matrix(0.87890625,0,0,0.87890625,130.00439,-0.17578125)">
    <path
       id="path97"
       d="m 256.6,20.4 c 24.7,54 -45.4,65.3 -41,125.6 l -43.4,-39.6 14.8,67.2 -65.8,-23.7 39.5,56.3 -69.79,3.3 55.69,35.4 c -55.37,26.2 -75.96,-35 -126.21,10.5 54.04,-24.7 65.33,45.4 125.61,41 l -39.6,43.4 67.2,-14.8 -23.7,65.8 56.3,-39.5 3.3,69.7 35.4,-55.6 c 26.2,55.6 -35,75.6 10.5,126.6 -24.7,-54 45.4,-66 41,-126 l 43.4,40 -14.8,-67.6 65.8,23.7 -39.5,-56.3 69.8,-3.3 -55.7,-35.4 c 55.4,-26.2 76,35 126.2,-10.5 -54,24.7 -65.3,-45.4 -125.5,-41 l 39.5,-43.4 -67.2,14.8 23.7,-65.8 -56.3,39.5 -3.3,-69.8 -35.4,55.7 c -26.2,-55.4 35,-76 -10.5,-126.2 z M 256,154.5 C 312,154.5 357.5,200 357.5,256 357.5,312 312,357.5 256,357.5 200,357.5 154.5,312 154.5,256 154.5,200 200,154.5 256,154.5 Z m 0,20.8 c -44.5,0 -80.7,36.2 -80.7,80.7 0,44.5 36.2,80.7 80.7,80.7 44.5,0 80.7,-36.2 80.7,-80.7 0,-44.5 -36.2,-80.7 -80.7,-80.7 z m -35.6,33.6 c 18.1,-0.3 35.6,12.3 35.6,29.6 V 295 l -18.6,-6.5 c 0,0 29.5,-70.3 -17.7,-70.3 -18.6,0 -30.8,9.5 -30.8,9.5 7.9,-13 19.8,-18.6 31.5,-18.8 z m -2.1,19.3 c 10.1,-0.1 19.9,4.6 22.9,17.2 h -12.5 c 0.3,0.7 0.5,1.5 0.5,2.3 0,4.6 -5.7,8.3 -12.8,8.3 -7,0 -12.7,-3.7 -12.7,-8.3 0,-0.8 0.2,-1.6 0.5,-2.3 h -12.5 c 0,-8.2 10.7,-15.4 22.2,-16.9 z m 75.4,0 c 13.1,0.1 26.6,8 26.6,17.2 h -12.5 c 0.3,0.7 0.5,1.5 0.5,2.3 0,4.6 -5.7,8.3 -12.7,8.3 -7.1,0 -12.8,-3.7 -12.8,-8.3 0,-0.8 0.2,-1.6 0.5,-2.3 h -12.5 c 2.7,-11.7 11.4,-16.6 20.8,-17.1 z m -44.8,76.7 c 2.2,0 4.4,0.7 7.1,3 8.5,-7.4 12.7,1.4 26.8,1.4 0,0 -10.6,8.6 -26.8,8.6 -16.2,0 -26.8,-8.6 -26.8,-8.6 9.7,0 14.7,-4.2 19.7,-4.4 z"
       inkscape:connector-curvature="0"
       style="fill:#000000;fill-opacity:1" />
  </g>
</svg>
