<?xml version="1.0" encoding="UTF-8" standalone="no"?>
<svg
   xmlns:dc="http://purl.org/dc/elements/1.1/"
   xmlns:cc="http://creativecommons.org/ns#"
   xmlns:rdf="http://www.w3.org/1999/02/22-rdf-syntax-ns#"
   xmlns:svg="http://www.w3.org/2000/svg"
   xmlns="http://www.w3.org/2000/svg"
   xmlns:sodipodi="http://sodipodi.sourceforge.net/DTD/sodipodi-0.dtd"
   xmlns:inkscape="http://www.inkscape.org/namespaces/inkscape"
   viewBox="0 0 710 450"
   version="1.1"
   id="svg6"
   sodipodi:docname="cursed-star (copy).svg"
   inkscape:version="0.92.5 (2060ec1f9f, 2020-04-08)"
   width="710"
   height="450">
  <metadata
     id="metadata12">
    <rdf:RDF>
      <cc:Work
         rdf:about="">
        <dc:format>image/svg+xml</dc:format>
        <dc:type
           rdf:resource="http://purl.org/dc/dcmitype/StillImage" />
        <dc:title />
      </cc:Work>
    </rdf:RDF>
  </metadata>
  <defs
     id="defs10" />
  <sodipodi:namedview
     pagecolor="#ffffff"
     bordercolor="#666666"
     borderopacity="1"
     objecttolerance="10"
     gridtolerance="10"
     guidetolerance="10"
     inkscape:pageopacity="0"
     inkscape:pageshadow="2"
     inkscape:window-width="1848"
     inkscape:window-height="1016"
     id="namedview8"
     showgrid="false"
     inkscape:zoom="0.28726213"
     inkscape:cx="-1025.8315"
     inkscape:cy="330.11538"
     inkscape:window-x="72"
     inkscape:window-y="27"
     inkscape:window-maximized="1"
     inkscape:current-layer="svg6"
     showguides="true"
     inkscape:guide-bbox="true"
     scale-x="1"
     viewbox-x="200"
     inkscape:pagecheckerboard="false">
    <sodipodi:guide
       position="0,0"
       orientation="0,1"
       id="guide818"
       inkscape:locked="false"
       inkscape:label=""
       inkscape:color="rgb(0,0,255)" />
    <sodipodi:guide
       position="0,0"
       orientation="1,0"
       id="guide826"
       inkscape:locked="false"
       inkscape:label=""
       inkscape:color="rgb(0,0,255)" />
    <sodipodi:guide
       position="710,0"
       orientation="1,0"
       id="guide842"
       inkscape:locked="false"
       inkscape:label=""
       inkscape:color="rgb(0,0,255)" />
    <sodipodi:guide
       position="0,450"
       orientation="0,1"
       id="guide844"
       inkscape:locked="false"
       inkscape:label=""
       inkscape:color="rgb(0,0,255)" />
    <sodipodi:guide
       position="355,0"
       orientation="1,0"
       id="guide850"
       inkscape:locked="false"
       inkscape:label=""
       inkscape:color="rgb(0,0,255)" />
    <sodipodi:guide
       position="0,225"
       orientation="0,1"
       id="guide852"
       inkscape:locked="false"
       inkscape:label=""
       inkscape:color="rgb(0,0,255)" />
    <sodipodi:guide
       position="30,0"
       orientation="1,0"
       inkscape:locked="false"
       id="guide862"
       inkscape:label=""
       inkscape:color="rgb(0,0,255)" />
    <sodipodi:guide
       position="0,30"
       orientation="0,1"
       inkscape:locked="false"
       id="guide864"
       inkscape:label=""
       inkscape:color="rgb(0,0,255)" />
    <sodipodi:guide
       position="0,420"
       orientation="0,1"
       inkscape:locked="false"
       id="guide866"
       inkscape:label=""
       inkscape:color="rgb(0,0,255)" />
    <sodipodi:guide
       position="680,0"
       orientation="1,0"
       inkscape:locked="false"
       id="guide868"
       inkscape:label=""
       inkscape:color="rgb(0,0,255)" />
  </sodipodi:namedview>
  <path
     style="fill:none;stroke:#000000;stroke-width:1px;stroke-linecap:butt;stroke-linejoin:miter;stroke-opacity:1"
     d="M -328,0 V 450"
     id="path846"
     inkscape:connector-curvature="0" />
  <path
     style="fill:none;stroke:#000000;stroke-width:1px;stroke-linecap:butt;stroke-linejoin:miter;stroke-opacity:1"
     d="M 0,754 H 710"
     id="path848"
     inkscape:connector-curvature="0" />
  <path
     style="fill:none;stroke:#000000;stroke-width:1px;stroke-linecap:butt;stroke-linejoin:miter;stroke-opacity:1"
     d="M -438,0 V 225"
     id="path854"
     inkscape:connector-curvature="0" />
  <path
     style="fill:none;stroke:#000000;stroke-width:1px;stroke-linecap:butt;stroke-linejoin:miter;stroke-opacity:1"
     d="M -196,225 V 450"
     id="path856"
     inkscape:connector-curvature="0" />
  <path
     style="fill:none;stroke:#000000;stroke-width:1px;stroke-linecap:butt;stroke-linejoin:miter;stroke-opacity:1"
     d="M 0,624 H 355"
     id="path858"
     inkscape:connector-curvature="0" />
  <path
     style="fill:none;stroke:#000000;stroke-width:1px;stroke-linecap:butt;stroke-linejoin:miter;stroke-opacity:1"
     d="M 355,852 H 710"
     id="path860"
     inkscape:connector-curvature="0" />
  <path
     style="fill:none;stroke:#000000;stroke-width:1px;stroke-linecap:butt;stroke-linejoin:miter;stroke-opacity:1"
     d="M 355,790 H 680"
     id="path870"
     inkscape:connector-curvature="0" />
  <path
     style="fill:none;stroke:#000000;stroke-width:1px;stroke-linecap:butt;stroke-linejoin:miter;stroke-opacity:1"
     d="M 30,655 H 355"
     id="path872"
     inkscape:connector-curvature="0" />
  <path
     style="fill:none;stroke:#000000;stroke-width:1px;stroke-linecap:butt;stroke-linejoin:miter;stroke-opacity:1"
     d="M -243,225 V 420"
     id="path874"
     inkscape:connector-curvature="0" />
  <path
     style="fill:none;stroke:#000000;stroke-width:1px;stroke-linecap:butt;stroke-linejoin:miter;stroke-opacity:1"
     d="M -373,30 V 225"
     id="path876"
     inkscape:connector-curvature="0" />
  <g
     id="g940-3-8"
     class=""
     transform="matrix(0.71463294,0,0,0.71463294,-463.11372,534.99343)" />
  <g
     id="g839"
     class=""
     transform="matrix(1.0738181,0,0,1.0738181,80.128304,-49.902802)">
    <path
       id="path837"
       d="m 116.2,175 5.6,22.8 -15.6,17.6 23.4,1.6 11.9,20.3 9,-21.8 22.8,-5.1 -17.9,-15.1 2.1,-23.4 -19.9,12.4 z m 255.4,-91.73 7.6,15.22 -7.9,15.01 16.7,-2.8 11.6,12.5 2.9,-16.8 15.2,-7.37 -15.1,-7.74 -2.2,-16.88 -12,11.95 z m -59.4,48.13 -6.9,18.8 -18.9,5.1 15.7,12.1 -0.4,7.9 A 67.17,246.4 64.14 0 0 233.3,204.9 67.17,246.4 64.14 0 0 233,205 67.17,246.4 64.14 0 0 84.14,299.5 L 71.86,292.3 70,268.5 l -17.92,15.9 -23.3,-5.5 9.75,22 -12.61,20.4 23.9,-2.5 7.05,8.3 a 67.17,246.4 64.14 0 0 -15.94,45.6 67.17,246.4 64.14 0 0 82.27,12 l -4.2,11.3 -21.49,5.8 17.69,13.5 -1.2,22.3 18.4,-12.5 20.9,8 -6.4,-21.4 14.1,-17.4 -22.3,-0.7 -7,-10.7 A 67.17,246.4 64.14 0 0 204,362.5 l 6.9,18.6 14.6,-22.9 27.2,-0.8 -8.3,-10.2 a 67.17,246.4 64.14 0 0 47.5,-21.5 67.17,246.4 64.14 0 0 120.4,-71.5 l 8.5,18 -13.9,23.5 27.1,-3.5 17.9,20.5 5.3,-26.7 25,-10.8 -24,-13.2 -2.4,-27.1 -20,18.6 -17.4,-3.9 a 67.17,246.4 64.14 0 0 65.7,-91.7 67.17,246.4 64.14 0 0 -153.7,7 l -0.2,-0.9 12.4,-15.4 -19.8,-0.5 z m -75.4,82.7 a 51.33,188.2 64.14 0 1 0.7,-0.5 51.33,188.2 64.14 0 1 63.6,-26.7 v 0.2 l 0.6,-0.4 a 51.33,188.2 64.14 0 1 23.3,-7.9 l 10.9,4.2 -2.1,-6.7 a 51.33,188.2 64.14 0 1 95.4,1.5 51.33,188.2 64.14 0 1 -58.4,76.2 l -2,-10.9 10,-10.3 -14.4,-1.6 -6.5,-12.9 -6.1,13.1 -14.4,2.4 10.7,9.8 -2.1,14.2 12.5,-6.8 9.9,4.8 a 51.33,188.2 64.14 0 1 -86.1,50.3 51.33,188.2 64.14 0 1 -43.6,19.2 l 4.3,-15 -25.3,9.7 -22.5,-15.1 1.6,27 -17,13.3 A 51.33,188.2 64.14 0 1 90.61,341.9 51.33,188.2 64.14 0 1 236.8,214.1 Z"
       inkscape:connector-curvature="0"
       style="fill:#000000;fill-opacity:1" />
  </g>
</svg>
