<?xml version="1.0" encoding="UTF-8" standalone="no"?>
<svg
   xmlns:dc="http://purl.org/dc/elements/1.1/"
   xmlns:cc="http://creativecommons.org/ns#"
   xmlns:rdf="http://www.w3.org/1999/02/22-rdf-syntax-ns#"
   xmlns:svg="http://www.w3.org/2000/svg"
   xmlns="http://www.w3.org/2000/svg"
   xmlns:sodipodi="http://sodipodi.sourceforge.net/DTD/sodipodi-0.dtd"
   xmlns:inkscape="http://www.inkscape.org/namespaces/inkscape"
   style="height: 512px; width: 512px;"
   viewBox="0 0 512 512"
   version="1.1"
   id="svg6"
   sodipodi:docname="machete.svg"
   inkscape:version="0.92.5 (2060ec1f9f, 2020-04-08)">
  <metadata
     id="metadata12">
    <rdf:RDF>
      <cc:Work
         rdf:about="">
        <dc:format>image/svg+xml</dc:format>
        <dc:type
           rdf:resource="http://purl.org/dc/dcmitype/StillImage" />
      </cc:Work>
    </rdf:RDF>
  </metadata>
  <defs
     id="defs10" />
  <sodipodi:namedview
     pagecolor="#ffffff"
     bordercolor="#666666"
     borderopacity="1"
     objecttolerance="10"
     gridtolerance="10"
     guidetolerance="10"
     inkscape:pageopacity="0"
     inkscape:pageshadow="2"
     inkscape:window-width="1848"
     inkscape:window-height="1016"
     id="namedview8"
     showgrid="false"
     inkscape:zoom="0.90706208"
     inkscape:cx="222.78831"
     inkscape:cy="178.98451"
     inkscape:window-x="72"
     inkscape:window-y="27"
     inkscape:window-maximized="1"
     inkscape:current-layer="svg6" />
  <g
     class=""
     transform="matrix(0,1,1,0,-20.81788,70.22232)"
     id="g4">
    <path
       d="m 217.594,356.845 -11.25,-14.908 c 85.803,-66.357 133.95,-126.46 157.75,-179 17.45,-38.53 22.02,-72.994 18.81,-103.687 l -211.964,235.813 -22,-29.125 -14.907,11.25 23.095,30.562 -0.25,0.188 34.22,44.968 c 0.022,-0.018 0.038,-0.044 0.06,-0.062 l 11.814,15.625 m 0,0 14.622,-11.624 M 142.03,319.28 c -4.855,3.834 -9.67,7.734 -14.405,11.72 3.36,9.22 7.55,20.726 11.875,32.72 3.4,9.423 6.637,18.544 9.594,26.905 8.9,-9.123 18.042,-17.753 27.5,-25.875 l -34.563,-45.47 z m -29.53,24.876 c -7.328,6.596 -14.497,13.383 -21.53,20.344 l 25,63.594 c 6.146,-7.627 12.39,-14.988 18.75,-22.094 -0.052,-0.145 -0.075,-0.26 -0.126,-0.406 -3.47,-9.91 -8.09,-22.787 -12.688,-35.53 -3.423,-9.494 -6.464,-17.82 -9.406,-25.908 z m -35.844,34.97 c -8.362,8.813 -16.52,17.888 -24.47,27.218 l 32.19,64.28 c 6.026,-8.72 12.082,-17.21 18.25,-25.405 l -25.97,-66.095 z m -37.5,42.968 c -6.48,8.057 -12.824,16.29 -19.03,24.687 2.195,26.79 25.804,46.102 46.093,51.064 2.042,-3.18 4.103,-6.317 6.155,-9.438 l -33.22,-66.312 z"
       id="path2"
       inkscape:connector-curvature="0"
       style="fill:#000000;fill-opacity:1"
       sodipodi:nodetypes="cccccccccccccccccccccccccccccccccccccccc" />
  </g>
</svg>
