<?xml version="1.0" standalone="no"?>
<!DOCTYPE svg PUBLIC "-//W3C//DTD SVG 20010904//EN"
 "http://www.w3.org/TR/2001/REC-SVG-20010904/DTD/svg10.dtd">
<svg version="1.0" xmlns="http://www.w3.org/2000/svg"
 width="500.000000pt" height="373.000000pt" viewBox="0 0 500.000000 373.000000"
 preserveAspectRatio="xMidYMid meet">

<g transform="translate(0.000000,373.000000) scale(0.100000,-0.100000)"
fill="#000000" stroke="none">
<path d="M4522 3521 c-19 -5 -39 -14 -45 -20 -6 -6 -25 -11 -43 -11 -36 0
-181 -69 -209 -100 -20 -23 -23 -84 -4 -106 9 -11 8 -19 -7 -37 -93 -112 -218
-205 -419 -312 -49 -26 -94 -51 -100 -55 -5 -4 -29 -11 -52 -15 -23 -3 -47
-13 -54 -21 -6 -8 -27 -14 -46 -14 -29 0 -33 3 -28 19 7 22 -32 54 -91 74 -35
13 -33 14 82 25 172 18 254 37 283 66 55 56 97 54 -959 48 l-972 -5 -25 -23
c-14 -13 -30 -24 -35 -24 -19 0 -120 -85 -158 -133 -53 -66 -54 -105 -5 -154
20 -20 34 -36 33 -37 -2 -1 -30 -10 -63 -21 -166 -54 -270 -113 -352 -197 -73
-77 -84 -111 -58 -188 17 -50 68 -127 109 -162 39 -34 121 -78 174 -93 105
-31 303 -38 380 -14 32 10 44 40 22 54 -16 10 -11 25 8 25 11 0 27 9 36 19 14
15 15 24 7 40 -14 25 -65 65 -111 84 -19 8 -44 22 -55 32 -19 16 -19 16 -1 11
26 -9 215 -33 311 -41 97 -8 217 14 287 52 39 21 49 32 54 60 4 20 2 39 -5 47
-10 12 11 15 136 18 126 2 153 6 181 23 29 17 33 25 30 53 -4 30 -2 32 27 32
71 0 231 49 354 107 57 27 81 33 107 28 41 -7 43 -19 7 -42 -16 -10 -71 -49
-123 -88 -52 -38 -106 -78 -120 -87 -14 -10 -77 -56 -140 -103 -120 -89 -365
-268 -473 -345 -35 -25 -115 -83 -178 -129 -63 -46 -151 -111 -197 -145 -46
-34 -111 -82 -145 -107 -299 -222 -535 -394 -848 -618 -20 -15 -121 -98 -223
-185 -176 -150 -296 -272 -376 -383 -19 -26 -37 -50 -40 -53 -17 -15 -56 -80
-87 -142 -43 -89 -37 -98 49 -74 126 36 361 124 366 138 2 4 7 8 12 8 5 0 79
34 165 75 l157 75 89 0 89 0 41 45 c22 24 100 91 171 147 72 57 221 176 332
266 235 190 206 167 506 408 129 103 262 210 295 237 33 27 114 93 180 145 66
53 122 99 125 102 3 3 21 17 42 32 20 15 42 33 50 41 7 7 175 142 373 301
l360 288 90 -4 c56 -3 102 -11 120 -21 l30 -16 -45 -1 c-45 0 -169 -39 -199
-62 -89 -70 -57 -125 84 -143 l60 -8 -55 -17 c-74 -22 -98 -36 -142 -81 -59
-58 -53 -93 26 -157 12 -9 137 -42 162 -42 2 0 -1 -9 -8 -20 -20 -32 6 -48
128 -78 l109 -27 -117 -7 c-145 -8 -339 -41 -434 -73 -88 -30 -227 -110 -274
-160 -29 -30 -35 -44 -35 -79 0 -34 5 -48 25 -64 69 -57 229 -84 371 -62 244
36 531 121 754 223 50 22 93 43 97 47 4 3 10 110 12 238 l5 232 35 31 c33 28
36 35 35 82 -2 67 -12 93 -54 132 -30 29 -33 36 -26 66 4 19 8 144 10 278 l3
243 -64 -7 c-112 -13 -219 -59 -226 -99 -11 -53 31 -90 128 -112 34 -8 34 -8
-23 -16 -86 -11 -145 -41 -159 -78 -6 -17 -15 -29 -22 -26 -91 38 -116 50
-116 56 0 11 157 186 216 240 27 25 88 70 137 99 48 29 87 57 87 62 0 19 -75
8 -115 -16 -22 -14 -44 -25 -50 -25 -5 1 4 8 20 17 17 9 32 19 35 23 6 7 128
80 136 80 2 0 22 11 43 24 30 19 47 23 78 19 91 -12 213 66 213 137 0 64 -19
152 -37 173 -41 45 -160 75 -231 58z m23 -21 c-3 -5 -16 -10 -28 -10 -18 0
-19 2 -7 10 20 13 43 13 35 0z m143 -16 c23 -16 31 -60 10 -51 -22 8 -92 35
-113 42 l-20 7 20 8 c33 14 79 11 103 -6z m-51 -44 c48 -21 48 -32 3 -55 -27
-14 -36 -13 -107 7 -43 12 -80 24 -83 26 -2 1 9 14 25 28 25 20 37 24 73 19
24 -3 64 -14 89 -25z m-267 0 c-14 -11 -30 -20 -37 -20 -6 0 -20 -3 -30 -6
-10 -3 2 6 27 20 54 30 75 33 40 6z m380 -36 c0 -8 -4 -12 -10 -9 -5 3 -10 10
-10 16 0 5 5 9 10 9 6 0 10 -7 10 -16z m-269 -14 c30 -6 86 -25 125 -44 75
-36 95 -62 87 -116 -4 -28 -39 -59 -66 -60 -17 0 -17 2 -3 22 41 59 -12 140
-110 169 -102 29 -274 5 -274 -39 0 -14 -2 -14 -9 -3 -12 19 6 47 44 66 35 17
129 19 206 5z m209 -15 c-23 -25 -50 -33 -50 -16 0 11 41 40 59 40 10 1 7 -7
-9 -24z m-183 -30 c64 -19 83 -39 52 -55 -12 -7 -18 -15 -13 -19 5 -3 10 -17
12 -30 l2 -24 -20 26 c-25 32 -130 67 -199 67 -59 0 -86 15 -51 28 67 25 146
28 217 7z m243 -3 c0 -5 -11 -19 -25 -32 -25 -23 -25 -23 -25 -2 0 11 8 26 18
31 21 13 32 14 32 3z m-288 -69 l48 -17 -57 -36 -56 -35 -63 20 c-34 11 -63
24 -64 29 -4 16 74 56 110 56 19 0 56 -8 82 -17z m68 -40 c0 -8 -100 -55 -100
-48 0 5 83 55 93 55 4 0 7 -3 7 -7z m-178 -50 c31 -11 48 -24 52 -37 8 -31 7
-46 -4 -46 -5 0 -10 8 -10 19 0 32 -62 37 -105 8 -34 -23 -37 -24 -70 -8 -34
16 -34 16 -14 31 12 8 31 25 43 36 22 23 32 23 108 -3z m-125 -86 c7 -5 22 -7
34 -4 15 4 18 3 10 -7 -6 -7 -8 -27 -5 -45 7 -35 -10 -44 -21 -11 -8 25 -23
25 -55 0 -40 -31 -49 -22 -10 10 19 16 30 30 23 30 -6 0 -30 -16 -53 -35 -41
-34 -41 -34 -75 -18 -19 9 -32 20 -29 24 2 4 24 15 49 25 48 18 55 28 28 39
-16 7 -14 9 7 15 25 7 74 -5 97 -23z m-140 -102 c13 -9 29 -13 35 -9 7 5 8 3
3 -7 -5 -7 -8 -29 -6 -48 l2 -34 -20 24 -20 24 -50 -49 c-47 -47 -50 -52 -45
-88 5 -27 3 -38 -6 -38 -7 0 -10 6 -7 14 3 8 -1 20 -9 26 -19 17 -47 -6 -40
-32 4 -16 2 -17 -10 -7 -19 16 -18 25 8 49 12 11 18 23 15 27 -4 3 -20 -5 -35
-19 l-27 -27 -39 20 c-22 10 -46 19 -53 19 -23 0 -14 15 22 34 40 22 45 36 13
36 -19 1 -20 2 -7 10 24 14 119 -13 141 -40 l18 -22 54 49 c31 26 51 49 46 51
-6 2 -29 -12 -51 -32 l-42 -35 -38 22 -38 22 37 22 c68 40 69 42 44 42 -13 1
-20 5 -17 11 9 14 93 3 122 -15z m123 -54 c0 -5 -4 -11 -9 -13 -16 -5 -164
-151 -203 -200 -21 -26 -38 -53 -38 -62 0 -9 -4 -16 -9 -16 -13 0 -1 41 22 74
24 34 218 225 230 226 4 0 7 -4 7 -9z m-1685 -105 c-13 -19 -13 -28 -4 -49 18
-39 28 -40 161 -3 207 56 552 84 673 53 33 -9 112 -21 175 -27 63 -7 119 -16
125 -21 5 -6 5 -9 -2 -9 -7 0 -24 -11 -39 -25 -25 -23 -34 -25 -125 -25 -78 0
-114 5 -176 25 -106 35 -272 50 -378 35 -131 -19 -237 -40 -292 -57 l-52 -15
21 -28 c11 -15 20 -44 21 -64 1 -30 -5 -42 -29 -61 -27 -23 -93 -49 -102 -41
-2 2 8 15 22 29 28 28 33 65 14 100 -23 45 -71 96 -92 99 -15 2 -20 9 -18 23
4 27 67 85 92 85 19 0 20 -1 5 -24z m1207 3 c63 -14 141 -51 174 -84 26 -26
35 -101 12 -92 -7 2 -12 10 -10 18 11 44 -26 78 -46 43 -13 -23 -40 -12 -101
45 -29 27 -58 48 -64 48 -50 -1 -97 5 -97 12 0 21 60 25 132 10z m83 -136 c22
-17 103 -61 180 -99 173 -84 241 -142 292 -251 18 -39 33 -78 33 -86 0 -30 40
-67 74 -67 55 0 82 47 62 110 -7 24 -5 23 23 -7 35 -37 49 -79 34 -102 -5 -9
-36 -25 -68 -35 -48 -16 -63 -17 -91 -7 -22 8 -40 9 -51 3 -10 -5 -53 -12 -96
-14 -69 -4 -82 -9 -117 -37 -45 -36 -46 -35 -26 14 19 45 69 75 126 75 71 0
77 9 57 73 -34 107 -92 163 -224 216 -146 59 -262 124 -328 184 -36 32 -65 62
-65 66 0 4 17 20 37 34 l37 27 36 -33 c19 -19 53 -47 75 -64z m-748 70 c-20
-2 -52 -2 -70 0 -17 2 0 4 38 4 39 0 53 -2 32 -4z m-147 -13 c-25 -4 -67 -10
-95 -15 -27 -4 -47 -5 -44 -1 10 10 89 24 139 24 l45 -1 -45 -7z m375 -17 c22
-8 52 -17 68 -20 35 -7 34 -16 -1 -29 -23 -9 -33 -8 -51 7 -13 11 -57 30 -99
44 l-77 26 60 -7 c33 -3 78 -13 100 -21z m-585 -23 c-8 -5 -24 -10 -35 -10
-17 0 -17 2 -5 10 8 5 24 10 35 10 17 0 17 -2 5 -10z m-280 -39 c0 -10 -7 -24
-15 -31 -12 -10 -15 -9 -15 6 0 11 -3 30 -7 43 -5 21 -4 22 16 12 11 -7 21
-20 21 -30z m36 25 c18 -19 18 -40 -1 -56 -8 -7 -15 -11 -16 -9 -3 25 -5 79
-2 79 3 0 11 -6 19 -14z m-102 -12 c18 -7 22 -49 5 -59 -13 -9 -15 -6 -24 33
-7 34 -6 36 19 26z m1075 -17 c-14 -12 -68 -53 -119 -92 -88 -67 -159 -121
-189 -147 -10 -9 -11 -13 -2 -16 6 -2 18 1 25 7 8 7 24 14 37 16 12 3 27 9 33
15 8 8 5 9 -9 4 -13 -5 -10 1 10 17 55 47 109 84 101 72 -4 -7 -3 -13 2 -13
15 0 33 26 24 35 -4 5 -1 5 5 1 8 -4 46 18 94 54 45 34 83 59 85 57 4 -4 -251
-199 -270 -206 -6 -2 -4 4 4 14 14 17 14 17 -7 4 -13 -8 -18 -16 -12 -20 6 -3
-22 -32 -64 -63 -80 -60 -115 -75 -57 -25 19 17 28 27 20 23 -8 -4 -25 -16
-37 -27 -25 -23 -43 -16 -23 8 20 24 3 17 -23 -9 -14 -14 -28 -22 -33 -18 -4
4 -4 2 0 -5 4 -7 14 -9 23 -6 12 5 14 3 8 -8 -8 -12 -6 -12 8 0 25 20 31 8 6
-14 -16 -15 -22 -16 -28 -6 -6 9 -11 10 -15 2 -4 -6 -12 -11 -18 -11 -6 0 -6
6 2 15 11 13 10 14 -3 9 -9 -3 -15 -14 -14 -25 1 -21 12 -25 22 -9 3 6 11 10
18 10 6 0 -4 -13 -23 -30 -38 -31 -61 -40 -39 -14 12 15 21 44 14 44 -13 0
-35 -14 -35 -22 0 -5 5 -6 10 -3 21 13 9 -10 -18 -34 -15 -14 -20 -20 -10 -12
10 8 21 12 23 9 11 -10 -234 -188 -250 -182 -13 5 -13 9 -3 22 7 9 0 6 -17 -6
-54 -39 -65 -49 -65 -57 0 -5 10 1 23 12 21 19 73 30 62 13 -3 -4 -39 -34 -80
-65 -41 -31 -75 -59 -75 -62 0 -6 47 23 75 47 27 23 297 227 610 461 390 292
356 270 381 245 14 -15 6 -24 -109 -114 -21 -17 -32 -32 -25 -34 10 -4 -49
-53 -199 -168 -162 -124 -224 -174 -230 -184 -8 -13 45 26 144 106 105 85 311
238 320 238 12 -1 -34 -39 -232 -190 -202 -154 -242 -186 -270 -209 -37 -32
-69 -57 -205 -161 -225 -173 -260 -201 -260 -207 0 -3 6 -1 13 4 28 21 325
250 357 276 91 70 326 252 450 347 259 198 301 232 296 238 -3 3 -14 -2 -24
-11 -10 -10 -23 -17 -28 -17 -5 1 4 12 21 25 l29 24 28 -31 c15 -18 28 -37 28
-43 0 -17 -46 -39 -62 -29 -11 6 -11 5 0 -8 10 -13 9 -18 -10 -31 -27 -17
-534 -414 -628 -491 -36 -30 -255 -203 -485 -386 -231 -182 -433 -343 -450
-356 -16 -13 -53 -41 -80 -62 -28 -20 -129 -100 -225 -177 -302 -243 -503
-399 -570 -445 -64 -43 -437 -233 -620 -315 -108 -48 -195 -80 -258 -94 -41
-9 -42 -8 -36 12 21 72 207 320 324 433 172 166 410 355 810 644 102 74 246
179 320 233 269 199 296 219 380 279 47 34 119 87 161 118 41 30 128 93 192
140 65 47 148 108 186 135 37 28 78 57 91 65 12 8 35 24 49 36 14 11 53 40 86
63 33 23 83 58 111 79 28 20 98 70 155 111 57 41 127 94 154 117 48 39 71 50
120 52 18 1 17 -1 -6 -21z m-1106 -21 c3 -8 -3 -22 -14 -32 -18 -16 -19 -16
-19 2 0 11 -5 25 -12 32 -9 9 -6 12 14 12 14 0 28 -6 31 -14z m191 -2 c9 -24
7 -28 -9 -14 -17 14 -20 30 -6 30 5 0 12 -7 15 -16z m-240 -13 c3 -4 -1 -17
-9 -27 -13 -18 -15 -18 -31 -2 -9 9 -13 21 -10 27 8 13 43 15 50 2z m1336 -16
c-16 -18 -19 -25 -9 -25 8 -1 -4 -16 -25 -35 -22 -19 -44 -35 -50 -35 -6 1 7
16 29 35 50 43 37 46 -17 4 -21 -17 -41 -30 -43 -27 -4 3 125 107 134 108 3 0
-6 -11 -19 -25z m-1390 -28 c-1 -18 -60 -73 -60 -56 0 23 39 81 50 74 6 -3 10
-12 10 -18z m1760 -112 c113 -45 157 -72 193 -115 45 -53 30 -54 -23 -1 -28
27 -71 59 -95 70 -72 34 -213 71 -269 71 -62 0 -84 11 -61 30 8 7 15 23 15 37
l0 24 73 -39 c39 -22 115 -56 167 -77z m492 -345 c-33 -31 -87 -45 -87 -21 0
11 55 35 114 50 2 1 -10 -12 -27 -29z m-137 0 c3 -5 -2 -10 -11 -10 -10 0 -26
-7 -36 -17 -10 -9 -21 -13 -26 -9 -8 9 34 46 54 46 7 0 16 -4 19 -10z m-90
-36 c0 -20 -4 -24 -20 -19 -11 3 -44 9 -74 12 -48 5 -52 8 -36 20 11 7 44 13
74 13 53 0 56 -1 56 -26z m112 -21 c1 -14 -6 -18 -38 -18 -44 -1 -48 6 -18 34
25 23 54 15 56 -16z m-7 -65 c0 -23 -3 -28 -12 -20 -7 5 -24 12 -38 14 l-25 3
22 22 c29 29 53 20 53 -19z m-20 -38 c0 -6 -7 -22 -16 -36 -16 -23 -18 -24
-35 -8 -18 16 -18 18 -3 36 18 19 54 25 54 8z m-57 -64 c6 -15 -22 -46 -40
-46 -22 0 -22 30 0 45 27 19 33 19 40 1z m-63 -56 c0 -13 -28 -25 -38 -16 -3
4 0 11 8 16 20 13 30 12 30 0z"/>
<path d="M3479 2442 c-108 -86 -266 -212 -352 -280 -86 -68 -160 -128 -163
-134 -4 -6 25 13 63 43 130 101 348 270 368 287 11 9 40 33 65 51 83 64 230
183 230 187 0 12 -34 -12 -211 -154z"/>
<path d="M3294 2525 c-10 -8 -14 -15 -8 -15 6 0 17 7 24 15 16 19 9 19 -16 0z"/>
<path d="M3416 2495 c-11 -8 -15 -15 -9 -15 6 0 16 7 23 15 16 19 11 19 -14 0z"/>
<path d="M3170 2430 c-9 -6 -10 -10 -3 -10 6 0 15 5 18 10 8 12 4 12 -15 0z"/>
<path d="M3186 2315 c-11 -8 -15 -15 -9 -15 6 0 16 7 23 15 16 19 11 19 -14 0z"/>
<path d="M2894 2245 c-10 -8 -14 -15 -8 -15 6 0 17 7 24 15 16 19 9 19 -16 0z"/>
<path d="M2800 2169 c0 -5 5 -7 10 -4 6 3 10 8 10 11 0 2 -4 4 -10 4 -5 0 -10
-5 -10 -11z"/>
<path d="M3015 2154 c-19 -15 -22 -21 -9 -15 18 9 52 41 43 41 -2 0 -17 -12
-34 -26z"/>
<path d="M2889 2053 c-13 -15 -12 -15 9 -4 23 12 28 21 13 21 -5 0 -15 -7 -22
-17z"/>
<path d="M2900 1979 c-36 -32 -26 -28 24 9 16 12 25 22 19 22 -5 0 -24 -14
-43 -31z"/>
<path d="M2774 1964 c-18 -14 -18 -15 4 -4 12 6 22 13 22 15 0 8 -5 6 -26 -11z"/>
<path d="M2464 1919 c-19 -22 -19 -22 3 -10 24 12 39 31 25 31 -5 0 -17 -10
-28 -21z"/>
<path d="M2480 1882 c-70 -58 -404 -308 -474 -357 -106 -73 -278 -206 -273
-212 3 -2 33 16 68 41 58 42 404 300 439 329 8 7 77 59 153 116 75 57 137 105
137 107 0 10 -19 1 -50 -24z"/>
<path d="M2673 1884 l-28 -26 33 22 c29 20 39 30 28 30 -3 0 -18 -12 -33 -26z"/>
<path d="M2729 1843 c-13 -16 -12 -17 4 -4 16 13 21 21 13 21 -2 0 -10 -8 -17
-17z"/>
<path d="M2360 1840 c-8 -5 -12 -12 -9 -15 4 -3 12 1 19 10 14 17 11 19 -10 5z"/>
<path d="M2579 1813 c-13 -15 -12 -15 9 -4 23 12 28 21 13 21 -5 0 -15 -7 -22
-17z"/>
<path d="M2509 1759 l-44 -41 42 32 c40 29 60 50 50 50 -2 0 -24 -18 -48 -41z"/>
<path d="M2255 1760 c-3 -6 1 -7 9 -4 18 7 21 14 7 14 -6 0 -13 -4 -16 -10z"/>
<path d="M2495 1720 c-3 -5 -1 -10 4 -10 6 0 11 5 11 10 0 6 -2 10 -4 10 -3 0
-8 -4 -11 -10z"/>
<path d="M2151 1680 c-13 -11 -19 -20 -14 -20 6 0 18 9 28 20 23 25 17 25 -14
0z"/>
<path d="M2420 1659 c-22 -18 -22 -19 -3 -10 12 6 25 16 28 21 9 15 3 12 -25
-11z"/>
<path d="M2297 1564 c-48 -37 -85 -69 -82 -72 3 -3 18 6 33 19 15 14 44 38 66
55 59 44 82 64 75 64 -3 0 -44 -30 -92 -66z"/>
<path d="M1657 1264 c-15 -13 -23 -24 -17 -24 13 0 55 38 49 44 -2 2 -17 -7
-32 -20z"/>
<path d="M1523 1164 c-40 -30 -73 -57 -73 -60 0 -10 57 31 129 93 46 40 18 23
-56 -33z"/>
<path d="M1294 992 c-77 -59 -156 -120 -175 -135 l-34 -29 49 28 c27 15 68 46
91 68 23 23 61 52 84 66 39 23 143 110 131 110 -3 0 -68 -49 -146 -108z"/>
<path d="M1040 800 c0 -5 4 -10 9 -10 6 0 13 5 16 10 3 6 -1 10 -9 10 -9 0
-16 -4 -16 -10z"/>
<path d="M633 3053 c-10 -3 -13 -58 -13 -223 l0 -218 41 -16 c50 -20 161 -42
255 -51 75 -7 208 12 265 38 19 9 55 24 80 35 81 35 207 131 278 213 73 84
136 191 127 215 -5 12 -79 14 -513 13 -279 0 -514 -3 -520 -6z"/>
<path d="M620 2435 c0 -123 0 -125 23 -125 35 0 304 58 327 70 49 26 -2 94
-98 128 -69 24 -190 52 -226 52 l-26 0 0 -125z"/>
<path d="M845 2324 c-74 -16 -111 -31 -153 -60 -26 -19 -53 -34 -59 -34 -10 0
-13 -28 -13 -107 l1 -108 67 -58 c37 -32 87 -71 110 -87 103 -69 357 -147 441
-135 104 14 181 56 181 99 0 36 -73 112 -115 120 -31 6 -34 9 -25 26 14 26 6
40 -46 78 -71 53 -120 65 -236 60 -73 -3 -96 -1 -83 7 39 22 96 79 101 101 9
34 -4 63 -34 78 -30 15 -107 26 -137 20z"/>
<path d="M618 1550 c-6 -276 -3 -312 27 -316 169 -25 263 -22 340 11 52 21
133 86 144 114 23 62 23 69 -10 106 -39 44 -90 71 -166 88 l-56 13 30 13 c17
7 39 28 49 47 23 42 17 54 -49 104 -56 43 -149 70 -240 70 l-64 0 -5 -250z"/>
<path d="M4335 1484 c-229 -84 -415 -190 -415 -236 0 -58 86 -80 340 -85 l205
-5 0 186 c0 102 -2 186 -5 185 -3 0 -59 -20 -125 -45z"/>
<path d="M2240 1181 c-97 -21 -186 -87 -211 -155 -10 -26 -20 -35 -58 -46 -60
-17 -111 -70 -111 -114 0 -42 29 -72 83 -86 23 -6 62 -17 87 -25 25 -8 54 -16
65 -18 l20 -5 -20 -1 c-27 -2 -207 -28 -277 -40 -56 -9 -190 -57 -258 -91 -55
-28 -120 -96 -120 -125 l0 -25 335 0 335 0 72 36 c118 60 229 136 309 215 114
111 152 201 128 311 -21 104 -111 163 -259 172 -47 2 -101 1 -120 -3z"/>
<path d="M3435 1179 c-74 -12 -191 -54 -237 -84 -49 -33 -80 -95 -67 -134 23
-65 249 -171 364 -171 46 0 45 -16 -2 -25 -40 -7 -83 -30 -83 -44 0 -27 84
-86 160 -113 156 -56 510 -138 592 -138 20 0 40 -4 43 -10 4 -6 57 -10 126
-10 l119 0 0 251 c0 153 -4 258 -10 270 -9 15 -22 19 -63 19 -46 0 -57 -4 -81
-29 -23 -24 -27 -36 -24 -72 l3 -44 -55 -12 c-30 -6 -66 -12 -80 -12 -23 -1
-23 1 12 29 39 32 56 79 44 118 -7 22 -83 82 -156 124 -137 78 -417 119 -605
87z"/>
<path d="M640 1024 c0 -80 1 -85 17 -73 30 25 73 92 73 114 0 23 -35 45 -70
45 -18 0 -20 -7 -20 -86z"/>
<path d="M2685 676 c-5 -3 -32 -7 -58 -11 -33 -4 -59 -16 -82 -37 -63 -54 -41
-91 85 -143 l84 -35 271 0 c148 0 275 4 281 8 6 4 14 21 18 37 5 25 2 35 -21
57 -35 33 -139 82 -218 103 -56 14 -336 31 -360 21z"/>
<path d="M3492 493 c3 -27 5 -28 83 -35 44 -3 84 -3 88 1 18 18 -85 61 -146
61 -25 0 -28 -3 -25 -27z"/>
</g>
</svg>
