<?xml version="1.0" encoding="UTF-8" standalone="no"?>
<svg
   xmlns:dc="http://purl.org/dc/elements/1.1/"
   xmlns:cc="http://creativecommons.org/ns#"
   xmlns:rdf="http://www.w3.org/1999/02/22-rdf-syntax-ns#"
   xmlns:svg="http://www.w3.org/2000/svg"
   xmlns="http://www.w3.org/2000/svg"
   xmlns:sodipodi="http://sodipodi.sourceforge.net/DTD/sodipodi-0.dtd"
   xmlns:inkscape="http://www.inkscape.org/namespaces/inkscape"
   viewBox="0 0 710 450"
   version="1.1"
   id="svg6"
   sodipodi:docname="vomiting (copy).svg"
   inkscape:version="0.92.5 (2060ec1f9f, 2020-04-08)"
   width="710"
   height="450">
  <metadata
     id="metadata12">
    <rdf:RDF>
      <cc:Work
         rdf:about="">
        <dc:format>image/svg+xml</dc:format>
        <dc:type
           rdf:resource="http://purl.org/dc/dcmitype/StillImage" />
        <dc:title />
      </cc:Work>
    </rdf:RDF>
  </metadata>
  <defs
     id="defs10" />
  <sodipodi:namedview
     pagecolor="#ffffff"
     bordercolor="#666666"
     borderopacity="1"
     objecttolerance="10"
     gridtolerance="10"
     guidetolerance="10"
     inkscape:pageopacity="0"
     inkscape:pageshadow="2"
     inkscape:window-width="1848"
     inkscape:window-height="1016"
     id="namedview8"
     showgrid="false"
     inkscape:zoom="0.21790314"
     inkscape:cx="-2323.1616"
     inkscape:cy="778.73084"
     inkscape:window-x="72"
     inkscape:window-y="27"
     inkscape:window-maximized="1"
     inkscape:current-layer="svg6"
     showguides="true"
     inkscape:guide-bbox="true"
     scale-x="1"
     viewbox-x="200"
     inkscape:pagecheckerboard="false">
    <sodipodi:guide
       position="0,0"
       orientation="0,1"
       id="guide818"
       inkscape:locked="false"
       inkscape:label=""
       inkscape:color="rgb(0,0,255)" />
    <sodipodi:guide
       position="0,0"
       orientation="1,0"
       id="guide826"
       inkscape:locked="false"
       inkscape:label=""
       inkscape:color="rgb(0,0,255)" />
    <sodipodi:guide
       position="710,0"
       orientation="1,0"
       id="guide842"
       inkscape:locked="false"
       inkscape:label=""
       inkscape:color="rgb(0,0,255)" />
    <sodipodi:guide
       position="0,450"
       orientation="0,1"
       id="guide844"
       inkscape:locked="false"
       inkscape:label=""
       inkscape:color="rgb(0,0,255)" />
    <sodipodi:guide
       position="355,0"
       orientation="1,0"
       id="guide850"
       inkscape:locked="false"
       inkscape:label=""
       inkscape:color="rgb(0,0,255)" />
    <sodipodi:guide
       position="0,225"
       orientation="0,1"
       id="guide852"
       inkscape:locked="false"
       inkscape:label=""
       inkscape:color="rgb(0,0,255)" />
    <sodipodi:guide
       position="30,0"
       orientation="1,0"
       inkscape:locked="false"
       id="guide862"
       inkscape:label=""
       inkscape:color="rgb(0,0,255)" />
    <sodipodi:guide
       position="0,30"
       orientation="0,1"
       inkscape:locked="false"
       id="guide864"
       inkscape:label=""
       inkscape:color="rgb(0,0,255)" />
    <sodipodi:guide
       position="0,420"
       orientation="0,1"
       inkscape:locked="false"
       id="guide866"
       inkscape:label=""
       inkscape:color="rgb(0,0,255)" />
    <sodipodi:guide
       position="680,0"
       orientation="1,0"
       inkscape:locked="false"
       id="guide868"
       inkscape:label=""
       inkscape:color="rgb(0,0,255)" />
  </sodipodi:namedview>
  <path
     style="fill:none;stroke:#000000;stroke-width:1px;stroke-linecap:butt;stroke-linejoin:miter;stroke-opacity:1"
     d="M -328,0 V 450"
     id="path846"
     inkscape:connector-curvature="0" />
  <path
     style="fill:none;stroke:#000000;stroke-width:1px;stroke-linecap:butt;stroke-linejoin:miter;stroke-opacity:1"
     d="M 0,754 H 710"
     id="path848"
     inkscape:connector-curvature="0" />
  <path
     style="fill:none;stroke:#000000;stroke-width:1px;stroke-linecap:butt;stroke-linejoin:miter;stroke-opacity:1"
     d="M -438,0 V 225"
     id="path854"
     inkscape:connector-curvature="0" />
  <path
     style="fill:none;stroke:#000000;stroke-width:1px;stroke-linecap:butt;stroke-linejoin:miter;stroke-opacity:1"
     d="M -196,225 V 450"
     id="path856"
     inkscape:connector-curvature="0" />
  <path
     style="fill:none;stroke:#000000;stroke-width:1px;stroke-linecap:butt;stroke-linejoin:miter;stroke-opacity:1"
     d="M 0,624 H 355"
     id="path858"
     inkscape:connector-curvature="0" />
  <path
     style="fill:none;stroke:#000000;stroke-width:1px;stroke-linecap:butt;stroke-linejoin:miter;stroke-opacity:1"
     d="M 355,852 H 710"
     id="path860"
     inkscape:connector-curvature="0" />
  <path
     style="fill:none;stroke:#000000;stroke-width:1px;stroke-linecap:butt;stroke-linejoin:miter;stroke-opacity:1"
     d="M 355,790 H 680"
     id="path870"
     inkscape:connector-curvature="0" />
  <path
     style="fill:none;stroke:#000000;stroke-width:1px;stroke-linecap:butt;stroke-linejoin:miter;stroke-opacity:1"
     d="M 30,655 H 355"
     id="path872"
     inkscape:connector-curvature="0" />
  <path
     style="fill:none;stroke:#000000;stroke-width:1px;stroke-linecap:butt;stroke-linejoin:miter;stroke-opacity:1"
     d="M -243,225 V 420"
     id="path874"
     inkscape:connector-curvature="0" />
  <path
     style="fill:none;stroke:#000000;stroke-width:1px;stroke-linecap:butt;stroke-linejoin:miter;stroke-opacity:1"
     d="M -373,30 V 225"
     id="path876"
     inkscape:connector-curvature="0" />
  <g
     id="g940-3-8"
     class=""
     transform="matrix(0.71463294,0,0,0.71463294,-463.11372,534.99343)" />
  <g
     id="g839"
     class=""
     transform="matrix(0.82115636,0,0,0.82115636,144.33234,15.088214)">
    <path
       id="path837"
       d="M 255.5,18.16 C 171.2,18.16 86.85,42.8 18.9,92.07 V 115.5 C 69.09,75.93 130.3,51.38 194.1,41.84 142.5,65.35 106.6,117.4 106.6,177.8 c 0,40.7 16.3,77.7 42.8,104.6 C 101.9,270.8 57.2,251.1 18.9,223.5 v 22.8 c 44.69,29.8 96.4,49.8 150.5,60 2,-3.6 4.2,-7.1 6.7,-10.3 6.3,-8.3 14.4,-15.2 24.1,-19.7 -5.3,-12 -8.3,-25.7 -8.3,-40.3 0,-3 0.1,-6 0.4,-9 -9,-12.7 -14.4,-28.2 -14.4,-45 0,-43.1 35,-78 78.1,-78 3,0 6,0.2 8.9,0.5 -9.2,8.1 -15,19.9 -15,33.2 0,6 1.2,11.7 3.4,16.9 3.2,-0.2 6.3,-0.1 9.5,0.2 16.6,2.2 30.8,11.8 40.8,25.8 11.6,-2.6 21.4,-9.7 27.6,-19.4 1.8,6.6 2.8,13.6 2.8,20.8 0,16.8 -5.3,32.3 -14.3,45 0.2,3 0.4,6 0.4,9 0,15.1 -3.2,29.2 -8.9,41.4 9,4.7 16.5,11.5 22.5,19.7 2.3,3 4.3,6.3 6.2,9.7 55.5,-10.3 108.6,-30.7 154.3,-61.5 v -22.8 c -38.5,28.1 -83.7,48 -131.6,59.8 26.4,-26.9 42.7,-63.8 42.7,-104.5 0,-60.2 -35.7,-112.13 -87,-135.74 64.2,9.82 125.7,34.86 175.9,75.14 V 93.59 C 427.3,43.96 330.3,19 255.5,18.16 Z M 256,173.2 c -11.8,0 -22.8,6.2 -31.3,17.4 -8.5,11.3 -14.1,27.4 -14.1,45.4 0,18 5.6,34.1 14.1,45.4 8.5,11.2 19.5,17.4 31.3,17.4 11.8,0 22.7,-6.2 31.3,-17.4 8.5,-11.3 14.1,-27.4 14.1,-45.4 0,-18 -5.6,-34.1 -14.1,-45.4 -8.6,-11.2 -19.5,-17.4 -31.3,-17.4 z m -18.3,40.4 c 5.7,0 10.2,10.5 10.2,23.4 0,12.9 -4.5,23.4 -10.2,23.4 -5.6,0 -10.2,-10.5 -10.2,-23.4 0,-12.9 4.6,-23.4 10.2,-23.4 z m 37.2,0 c 5.6,0 10.2,10.5 10.2,23.4 0,12.9 -4.6,23.4 -10.2,23.4 -5.6,0 -10.2,-10.5 -10.2,-23.4 0,-12.9 4.6,-23.4 10.2,-23.4 z m -65.3,78.8 c -7.5,3.1 -13.5,8.1 -18.6,14.9 -7.3,9.7 -12.6,23.3 -16.1,39 -7,31.6 -6.8,71.4 -6.8,104.5 v 42.3 h 22 v -99.3 h 18.7 v 99.3 h 93.6 v -99.3 h 18.7 v 99.3 h 22.8 v -42.3 c 0,-32.7 -1.1,-72.1 -8.8,-103.5 -3.8,-15.7 -9.2,-29.4 -16.5,-39.2 -4.8,-6.7 -10.3,-11.6 -17,-14.8 -11.3,14.5 -27.5,24.2 -45.6,24.2 -18,-0.1 -37.4,-11.9 -46.4,-25.1 z"
       inkscape:connector-curvature="0"
       style="fill:#000000;fill-opacity:1" />
  </g>
</svg>
