<?xml version="1.0" encoding="UTF-8" standalone="no"?>
<svg
   xmlns:dc="http://purl.org/dc/elements/1.1/"
   xmlns:cc="http://creativecommons.org/ns#"
   xmlns:rdf="http://www.w3.org/1999/02/22-rdf-syntax-ns#"
   xmlns:svg="http://www.w3.org/2000/svg"
   xmlns="http://www.w3.org/2000/svg"
   xmlns:sodipodi="http://sodipodi.sourceforge.net/DTD/sodipodi-0.dtd"
   xmlns:inkscape="http://www.inkscape.org/namespaces/inkscape"
   style="height: 512px; width: 512px;"
   viewBox="0 0 512 512"
   version="1.1"
   id="svg6"
   sodipodi:docname="stiletto.svg"
   inkscape:version="0.92.5 (2060ec1f9f, 2020-04-08)">
  <metadata
     id="metadata12">
    <rdf:RDF>
      <cc:Work
         rdf:about="">
        <dc:format>image/svg+xml</dc:format>
        <dc:type
           rdf:resource="http://purl.org/dc/dcmitype/StillImage" />
      </cc:Work>
    </rdf:RDF>
  </metadata>
  <defs
     id="defs10" />
  <sodipodi:namedview
     pagecolor="#ffffff"
     bordercolor="#666666"
     borderopacity="1"
     objecttolerance="10"
     gridtolerance="10"
     guidetolerance="10"
     inkscape:pageopacity="0"
     inkscape:pageshadow="2"
     inkscape:window-width="1848"
     inkscape:window-height="1016"
     id="namedview8"
     showgrid="false"
     inkscape:zoom="0.3435028"
     inkscape:cx="-330.19209"
     inkscape:cy="-183.57923"
     inkscape:window-x="72"
     inkscape:window-y="27"
     inkscape:window-maximized="1"
     inkscape:current-layer="svg6" />
  <g
     class=""
     transform="translate(0,0)"
     id="g4"
     style="">
    <path
       d="m 38.748,473.09 a 20.53,20.53 0 1 0 0,-29 20.46,20.46 0 0 0 0,29 z"
       id="path828" />
    <path
       d="m 146.08094,484.27335 c -3.22692,3.76066 -8.97183,3.97975 -12.47579,0.47578 -3.50396,-3.50396 -3.28488,-9.24887 0.47579,-12.47578 15.01569,-15.0092 62.86829,-71.55579 47.85259,-86.56498 l -50.6,-50.52 c -15.02292,-15.02027 -18.27726,-20.6812 -33.300186,-5.66093 -3.309591,3.3005 -8.65757,3.32724 -12,0.06 -3.350243,-3.29849 -3.350243,-8.70151 0,-12 10.403097,-10.37752 19.148036,-10.1974 26.096946,-10.65638 14.09874,-0.93124 20.84722,5.94676 31.24324,16.33731 l 50.56,50.37 c 0.39549,0.41124 0.77274,0.82987 1.14543,1.24383 21.98814,24.42288 -27.6085,88.00037 -48.99802,109.39115 z"
       id="path826"
       inkscape:connector-curvature="0"
       sodipodi:nodetypes="csccccccsccsc" />
    <path
       d="m 442.928,58.28 c 8.78,-8.31 36.35,-25.4 36.35,-25.4 0,0 -17.08,27.56 -25.4,36.35 -58.39,61.66 -215.17,222.6 -267.3,276.06 l -19.71,-19.71 c 53.46,-52.13 214.4,-208.91 276.06,-267.3 z"
       id="path824" />
    <path
       d="m 106.138,383.81 c 8.8,-8.8 17.5,-16.88 25.68,-23.94 l 20.47,20.47 c -7.07,8.19 -15.14,16.88 -23.94,25.68 a 423.48,423.48 0 0 1 -41.95,37.16 36.77,36.77 0 0 0 -17.33,-17.54 424,424 0 0 1 37.07,-41.83 z"
       id="path2" />
  </g>
</svg>
