<?xml version="1.0" encoding="UTF-8" standalone="no"?>
<svg
   xmlns:dc="http://purl.org/dc/elements/1.1/"
   xmlns:cc="http://creativecommons.org/ns#"
   xmlns:rdf="http://www.w3.org/1999/02/22-rdf-syntax-ns#"
   xmlns:svg="http://www.w3.org/2000/svg"
   xmlns="http://www.w3.org/2000/svg"
   xmlns:sodipodi="http://sodipodi.sourceforge.net/DTD/sodipodi-0.dtd"
   xmlns:inkscape="http://www.inkscape.org/namespaces/inkscape"
   viewBox="0 0 710 450"
   version="1.1"
   id="svg6"
   sodipodi:docname="template.svg"
   inkscape:version="0.92.5 (2060ec1f9f, 2020-04-08)"
   width="710"
   height="450">
  <metadata
     id="metadata12">
    <rdf:RDF>
      <cc:Work
         rdf:about="">
        <dc:format>image/svg+xml</dc:format>
        <dc:type
           rdf:resource="http://purl.org/dc/dcmitype/StillImage" />
        <dc:title></dc:title>
      </cc:Work>
    </rdf:RDF>
  </metadata>
  <defs
     id="defs10" />
  <sodipodi:namedview
     pagecolor="#ffffff"
     bordercolor="#666666"
     borderopacity="1"
     objecttolerance="10"
     gridtolerance="10"
     guidetolerance="10"
     inkscape:pageopacity="0"
     inkscape:pageshadow="2"
     inkscape:window-width="1848"
     inkscape:window-height="1016"
     id="namedview8"
     showgrid="false"
     inkscape:zoom="0.46680096"
     inkscape:cx="83.700607"
     inkscape:cy="340.00915"
     inkscape:window-x="72"
     inkscape:window-y="27"
     inkscape:window-maximized="1"
     inkscape:current-layer="svg6"
     showguides="true"
     inkscape:guide-bbox="true"
     scale-x="1"
     viewbox-x="200"
     inkscape:pagecheckerboard="false">
    <sodipodi:guide
       position="0,0"
       orientation="0,1"
       id="guide818"
       inkscape:locked="false"
       inkscape:label=""
       inkscape:color="rgb(0,0,255)" />
    <sodipodi:guide
       position="0,0"
       orientation="1,0"
       id="guide826"
       inkscape:locked="false"
       inkscape:label=""
       inkscape:color="rgb(0,0,255)" />
    <sodipodi:guide
       position="710,0"
       orientation="1,0"
       id="guide842"
       inkscape:locked="false"
       inkscape:label=""
       inkscape:color="rgb(0,0,255)" />
    <sodipodi:guide
       position="0,450"
       orientation="0,1"
       id="guide844"
       inkscape:locked="false"
       inkscape:label=""
       inkscape:color="rgb(0,0,255)" />
    <sodipodi:guide
       position="355,0"
       orientation="1,0"
       id="guide850"
       inkscape:locked="false"
       inkscape:label=""
       inkscape:color="rgb(0,0,255)" />
    <sodipodi:guide
       position="0,225"
       orientation="0,1"
       id="guide852"
       inkscape:locked="false"
       inkscape:label=""
       inkscape:color="rgb(0,0,255)" />
    <sodipodi:guide
       position="30,0"
       orientation="1,0"
       inkscape:locked="false"
       id="guide862"
       inkscape:label=""
       inkscape:color="rgb(0,0,255)" />
    <sodipodi:guide
       position="0,30"
       orientation="0,1"
       inkscape:locked="false"
       id="guide864"
       inkscape:label=""
       inkscape:color="rgb(0,0,255)" />
    <sodipodi:guide
       position="0,420"
       orientation="0,1"
       inkscape:locked="false"
       id="guide866"
       inkscape:label=""
       inkscape:color="rgb(0,0,255)" />
    <sodipodi:guide
       position="680,0"
       orientation="1,0"
       inkscape:locked="false"
       id="guide868"
       inkscape:label=""
       inkscape:color="rgb(0,0,255)" />
  </sodipodi:namedview>
  <path
     style="fill:none;stroke:#000000;stroke-width:1px;stroke-linecap:butt;stroke-linejoin:miter;stroke-opacity:1"
     d="M -328,0 V 450"
     id="path846"
     inkscape:connector-curvature="0" />
  <path
     style="fill:none;stroke:#000000;stroke-width:1px;stroke-linecap:butt;stroke-linejoin:miter;stroke-opacity:1"
     d="M 0,754 H 710"
     id="path848"
     inkscape:connector-curvature="0" />
  <path
     style="fill:none;stroke:#000000;stroke-width:1px;stroke-linecap:butt;stroke-linejoin:miter;stroke-opacity:1"
     d="M -438,0 V 225"
     id="path854"
     inkscape:connector-curvature="0" />
  <path
     style="fill:none;stroke:#000000;stroke-width:1px;stroke-linecap:butt;stroke-linejoin:miter;stroke-opacity:1"
     d="M -196,225 V 450"
     id="path856"
     inkscape:connector-curvature="0" />
  <path
     style="fill:none;stroke:#000000;stroke-width:1px;stroke-linecap:butt;stroke-linejoin:miter;stroke-opacity:1"
     d="M 0,624 H 355"
     id="path858"
     inkscape:connector-curvature="0" />
  <path
     style="fill:none;stroke:#000000;stroke-width:1px;stroke-linecap:butt;stroke-linejoin:miter;stroke-opacity:1"
     d="M 355,852 H 710"
     id="path860"
     inkscape:connector-curvature="0" />
  <path
     style="fill:none;stroke:#000000;stroke-width:1px;stroke-linecap:butt;stroke-linejoin:miter;stroke-opacity:1"
     d="M 355,790 H 680"
     id="path870"
     inkscape:connector-curvature="0" />
  <path
     style="fill:none;stroke:#000000;stroke-width:1px;stroke-linecap:butt;stroke-linejoin:miter;stroke-opacity:1"
     d="M 30,655 H 355"
     id="path872"
     inkscape:connector-curvature="0" />
  <path
     style="fill:none;stroke:#000000;stroke-width:1px;stroke-linecap:butt;stroke-linejoin:miter;stroke-opacity:1"
     d="M -243,225 V 420"
     id="path874"
     inkscape:connector-curvature="0" />
  <path
     style="fill:none;stroke:#000000;stroke-width:1px;stroke-linecap:butt;stroke-linejoin:miter;stroke-opacity:1"
     d="M -373,30 V 225"
     id="path876"
     inkscape:connector-curvature="0" />
  <g
     id="g940-3-8"
     class=""
     transform="matrix(0.71463294,0,0,0.71463294,-463.11372,534.99343)" />
  <g
     id="g29"
     class=""
     transform="matrix(0.87890625,0,0,0.87890625,139.68115,2.4868652)">
    <path
       id="path27"
       d="m 286.313,15.688 -27.344,93.437 -99.345,-81.188 2.844,59.626 -62.5,-71.313 55.405,155.094 -109.843,-17.688 71.44,67.813 -99.5,41.81 113.968,24.095 -66.875,97.75 86.718,0.47 0.27,-0.16 -53.226,76.985 98.78,-66.066 25.552,94.302 60.843,-105.905 51.313,99.97 -20.25,-102.876 114.967,42.656 -41,-125.594 74.22,-90 -88.25,-9.03 98,-112.19 -118.53,76.5 12.436,-120.25 -70.625,74.97 -9.467,-103.22 z m -64.22,92.218 c -1.85,32.582 5.535,54.595 29.22,88.75 3.503,5.053 7.998,11.39 13.218,18.5 27.253,-31.716 53.06,-65.5 72.283,-95.875 9.52,26.452 -16.487,79.21 -51.032,123.75 14.97,18.868 32.62,39.58 51.033,57.97 l 17.78,-17.78 13.22,13.217 -23.657,23.657 42.03,42.03 -13.217,13.22 -42.033,-42.03 -23.656,23.655 -13.217,-13.22 18.187,-18.188 c -17.205,-16.823 -34.137,-35.352 -49.97,-54.937 -12.22,12.986 -24.73,24.26 -36.56,32.563 5.864,14.06 3.938,31.497 -11.75,47.187 l -23.657,-23.688 -48.657,48.657 -13.22,-13.22 48.626,-48.624 -23.625,-23.656 c 15.812,-15.81 35.026,-16.877 50.094,-9.688 12.003,-11.6 24.51,-24.447 37.032,-38.062 -12.025,-16.877 -23,-34.274 -32.468,-51.844 -23.307,-43.25 -21.733,-65.31 14,-82.344 z"
       inkscape:connector-curvature="0"
       style="fill:#000000;fill-opacity:1" />
  </g>
</svg>
