<?xml version="1.0" encoding="UTF-8" standalone="no"?>
<svg
   xmlns:dc="http://purl.org/dc/elements/1.1/"
   xmlns:cc="http://creativecommons.org/ns#"
   xmlns:rdf="http://www.w3.org/1999/02/22-rdf-syntax-ns#"
   xmlns:svg="http://www.w3.org/2000/svg"
   xmlns="http://www.w3.org/2000/svg"
   xmlns:sodipodi="http://sodipodi.sourceforge.net/DTD/sodipodi-0.dtd"
   xmlns:inkscape="http://www.inkscape.org/namespaces/inkscape"
   viewBox="0 0 710 450"
   version="1.1"
   id="svg6"
   sodipodi:docname="template.svg"
   inkscape:version="0.92.5 (2060ec1f9f, 2020-04-08)"
   width="710"
   height="450">
  <metadata
     id="metadata12">
    <rdf:RDF>
      <cc:Work
         rdf:about="">
        <dc:format>image/svg+xml</dc:format>
        <dc:type
           rdf:resource="http://purl.org/dc/dcmitype/StillImage" />
        <dc:title></dc:title>
      </cc:Work>
    </rdf:RDF>
  </metadata>
  <defs
     id="defs10" />
  <sodipodi:namedview
     pagecolor="#ffffff"
     bordercolor="#666666"
     borderopacity="1"
     objecttolerance="10"
     gridtolerance="10"
     guidetolerance="10"
     inkscape:pageopacity="0"
     inkscape:pageshadow="2"
     inkscape:window-width="1848"
     inkscape:window-height="1016"
     id="namedview8"
     showgrid="false"
     inkscape:zoom="0.28726213"
     inkscape:cx="-783.14724"
     inkscape:cy="171.28933"
     inkscape:window-x="72"
     inkscape:window-y="27"
     inkscape:window-maximized="1"
     inkscape:current-layer="svg6"
     showguides="true"
     inkscape:guide-bbox="true"
     scale-x="1"
     viewbox-x="200"
     inkscape:pagecheckerboard="false">
    <sodipodi:guide
       position="0,0"
       orientation="0,1"
       id="guide818"
       inkscape:locked="false"
       inkscape:label=""
       inkscape:color="rgb(0,0,255)" />
    <sodipodi:guide
       position="0,0"
       orientation="1,0"
       id="guide826"
       inkscape:locked="false"
       inkscape:label=""
       inkscape:color="rgb(0,0,255)" />
    <sodipodi:guide
       position="710,0"
       orientation="1,0"
       id="guide842"
       inkscape:locked="false"
       inkscape:label=""
       inkscape:color="rgb(0,0,255)" />
    <sodipodi:guide
       position="0,450"
       orientation="0,1"
       id="guide844"
       inkscape:locked="false"
       inkscape:label=""
       inkscape:color="rgb(0,0,255)" />
    <sodipodi:guide
       position="355,0"
       orientation="1,0"
       id="guide850"
       inkscape:locked="false"
       inkscape:label=""
       inkscape:color="rgb(0,0,255)" />
    <sodipodi:guide
       position="0,225"
       orientation="0,1"
       id="guide852"
       inkscape:locked="false"
       inkscape:label=""
       inkscape:color="rgb(0,0,255)" />
    <sodipodi:guide
       position="30,0"
       orientation="1,0"
       inkscape:locked="false"
       id="guide862"
       inkscape:label=""
       inkscape:color="rgb(0,0,255)" />
    <sodipodi:guide
       position="0,30"
       orientation="0,1"
       inkscape:locked="false"
       id="guide864"
       inkscape:label=""
       inkscape:color="rgb(0,0,255)" />
    <sodipodi:guide
       position="0,420"
       orientation="0,1"
       inkscape:locked="false"
       id="guide866"
       inkscape:label=""
       inkscape:color="rgb(0,0,255)" />
    <sodipodi:guide
       position="680,0"
       orientation="1,0"
       inkscape:locked="false"
       id="guide868"
       inkscape:label=""
       inkscape:color="rgb(0,0,255)" />
  </sodipodi:namedview>
  <path
     style="fill:none;stroke:#000000;stroke-width:1px;stroke-linecap:butt;stroke-linejoin:miter;stroke-opacity:1"
     d="M -328,0 V 450"
     id="path846"
     inkscape:connector-curvature="0" />
  <path
     style="fill:none;stroke:#000000;stroke-width:1px;stroke-linecap:butt;stroke-linejoin:miter;stroke-opacity:1"
     d="M 0,754 H 710"
     id="path848"
     inkscape:connector-curvature="0" />
  <path
     style="fill:none;stroke:#000000;stroke-width:1px;stroke-linecap:butt;stroke-linejoin:miter;stroke-opacity:1"
     d="M -438,0 V 225"
     id="path854"
     inkscape:connector-curvature="0" />
  <path
     style="fill:none;stroke:#000000;stroke-width:1px;stroke-linecap:butt;stroke-linejoin:miter;stroke-opacity:1"
     d="M -196,225 V 450"
     id="path856"
     inkscape:connector-curvature="0" />
  <path
     style="fill:none;stroke:#000000;stroke-width:1px;stroke-linecap:butt;stroke-linejoin:miter;stroke-opacity:1"
     d="M 0,624 H 355"
     id="path858"
     inkscape:connector-curvature="0" />
  <path
     style="fill:none;stroke:#000000;stroke-width:1px;stroke-linecap:butt;stroke-linejoin:miter;stroke-opacity:1"
     d="M 355,852 H 710"
     id="path860"
     inkscape:connector-curvature="0" />
  <path
     style="fill:none;stroke:#000000;stroke-width:1px;stroke-linecap:butt;stroke-linejoin:miter;stroke-opacity:1"
     d="M 355,790 H 680"
     id="path870"
     inkscape:connector-curvature="0" />
  <path
     style="fill:none;stroke:#000000;stroke-width:1px;stroke-linecap:butt;stroke-linejoin:miter;stroke-opacity:1"
     d="M 30,655 H 355"
     id="path872"
     inkscape:connector-curvature="0" />
  <path
     style="fill:none;stroke:#000000;stroke-width:1px;stroke-linecap:butt;stroke-linejoin:miter;stroke-opacity:1"
     d="M -243,225 V 420"
     id="path874"
     inkscape:connector-curvature="0" />
  <path
     style="fill:none;stroke:#000000;stroke-width:1px;stroke-linecap:butt;stroke-linejoin:miter;stroke-opacity:1"
     d="M -373,30 V 225"
     id="path876"
     inkscape:connector-curvature="0" />
  <g
     id="g940-3-8"
     class=""
     transform="matrix(0.71463294,0,0,0.71463294,-463.11372,534.99343)" />
  <g
     id="g31"
     class=""
     transform="matrix(0.87890625,0,0,0.87890625,127.30967,-4.4235352)">
    <path
       id="path29"
       d="M 149.25,18.313 168.156,115 c -0.274,0.174 -0.54,0.356 -0.812,0.53 L 94,97.876 l 17.47,74.22 c -0.655,1.046 -1.306,2.093 -1.94,3.155 l -91.28,-8.875 73,51.156 c -0.808,2.82 -1.546,5.658 -2.22,8.532 l -64.53,40 63.906,39.22 c 0.28,1.282 0.57,2.57 0.875,3.843 l -46.468,36.563 55.97,-7.907 c 3.506,8.184 7.588,16.056 12.218,23.564 l -17,72.344 64.344,-15.47 -9.094,75.563 52.188,-58.06 c 7.553,2.82 15.352,5.14 23.343,6.936 L 262.189,503.754 299,443.656 c 5.876,-1.156 11.655,-2.6 17.313,-4.312 l 29.406,31.03 -5.47,-40.187 c 7.902,-3.694 15.49,-7.96 22.72,-12.718 l 67.405,16.217 -15.906,-67.656 c 5.62,-8.506 10.555,-17.504 14.686,-26.936 l 47.563,6.594 -39.095,-30.438 c 1.175,-4.23 2.192,-8.526 3.063,-12.875 l 59.187,-36.313 -59.75,-37.03 c -1.686,-7.793 -3.87,-15.397 -6.53,-22.782 l 59.5,-47.656 -73.94,17.03 c -1.645,-2.777 -3.367,-5.507 -5.155,-8.186 l 16.375,-69.563 -70.344,16.938 c -5.638,-3.56 -11.49,-6.824 -17.53,-9.75 l 3.22,-63.376 -37.22,51 c -2.527,-0.64 -5.088,-1.215 -7.656,-1.75 l -38.656,-63.156 -39.282,64.19 c -4.772,1.127 -9.475,2.438 -14.094,3.936 L 149.25,18.312 Z m 115,88.874 c 88.423,0 159.875,71.484 159.875,159.907 0,88.423 -71.452,159.875 -159.875,159.875 -88.423,0 -159.906,-71.453 -159.906,-159.876 0,-88.423 71.483,-159.906 159.906,-159.906 z m 49.03,44.157 c -5.278,0.115 -10.207,2.383 -16.936,9.562 l -6.563,7 -6.81,-6.72 c -7.39,-7.28 -13.218,-9.29 -19.126,-9.03 -5.91,0.26 -12.856,3.336 -20.625,9.625 l -6.22,5.032 -5.906,-5.343 c -8.9,-8.053 -16.485,-10.44 -23.75,-10.064 -5.288,0.273 -10.775,2.265 -16.25,5.75 l 40.97,73.688 c 15.445,9.445 47.003,13.015 68.717,2.094 l 39.626,-73.375 c -7.51,-3.063 -14.258,-6.202 -20.094,-7.407 -2.112,-0.436 -4.07,-0.755 -5.968,-0.812 -0.356,-0.01 -0.71,-0.008 -1.063,0 z m -90,96.187 c -18.017,12.748 -32.488,34.71 -38.093,66.876 -5.436,31.197 3.127,52.266 18.282,66.625 15.154,14.36 37.9,21.77 61,21.47 23.098,-0.3 46.134,-8.31 61.624,-22.938 15.49,-14.626 24.25,-35.456 19.28,-65.218 -5.132,-30.736 -18.383,-52.115 -35.155,-65.063 -28.498,15.077 -64.154,11.872 -86.94,-1.75 z"
       inkscape:connector-curvature="0"
       style="fill:#000000;fill-opacity:1" />
  </g>
</svg>
