<?xml version="1.0" encoding="UTF-8" standalone="no"?>
<svg
   xmlns:dc="http://purl.org/dc/elements/1.1/"
   xmlns:cc="http://creativecommons.org/ns#"
   xmlns:rdf="http://www.w3.org/1999/02/22-rdf-syntax-ns#"
   xmlns:svg="http://www.w3.org/2000/svg"
   xmlns="http://www.w3.org/2000/svg"
   xmlns:sodipodi="http://sodipodi.sourceforge.net/DTD/sodipodi-0.dtd"
   xmlns:inkscape="http://www.inkscape.org/namespaces/inkscape"
   style="height: 512px; width: 512px;"
   viewBox="0 0 512 512"
   version="1.1"
   id="svg6"
   sodipodi:docname="stiletto.svg"
   inkscape:version="0.92.5 (2060ec1f9f, 2020-04-08)">
  <metadata
     id="metadata12">
    <rdf:RDF>
      <cc:Work
         rdf:about="">
        <dc:format>image/svg+xml</dc:format>
        <dc:type
           rdf:resource="http://purl.org/dc/dcmitype/StillImage" />
      </cc:Work>
    </rdf:RDF>
  </metadata>
  <defs
     id="defs10" />
  <sodipodi:namedview
     pagecolor="#ffffff"
     bordercolor="#666666"
     borderopacity="1"
     objecttolerance="10"
     gridtolerance="10"
     guidetolerance="10"
     inkscape:pageopacity="0"
     inkscape:pageshadow="2"
     inkscape:window-width="1848"
     inkscape:window-height="1016"
     id="namedview8"
     showgrid="false"
     inkscape:zoom="0.39470138"
     inkscape:cx="-301.12788"
     inkscape:cy="-160.75779"
     inkscape:window-x="72"
     inkscape:window-y="27"
     inkscape:window-maximized="1"
     inkscape:current-layer="g4" />
  <g
     class=""
     style=""
     transform="translate(0,0)"
     id="g4">
    <path
       d="m 62.499997,17.280003 c -9.747,0.288 -20.824,5.23 -29.844,14.25 -15.192,15.193 -18.838,36.194 -8.125,46.907 7.99,7.988 21.716,8.027 34.47,1.22 C 75.167997,109.707 101.155,137.344 130.439,156.031 c -18.77,24.156 -29.97,54.48 -29.97,87.376 h 18.688 c 0,-28.9 9.828,-55.474 26.344,-76.53 l 2.156,39.405 C 274.5,320.554 402.09,428.196 496.062,494.94 430.522,399.646 319.072,270.302 207.375,146.533 l -38.97,-2.124 c 20.764,-15.68 46.638,-24.967 74.72,-24.97 V 100.75 c -32.2,0.002 -61.945,10.725 -85.844,28.78 -18.696,-29.383 -46.39,-55.479997 -76.530003,-71.685997 6.795,-12.748 6.796,-26.423 -1.188,-34.407 -4.352,-4.352 -10.393,-6.352 -17.062,-6.156 z"
       id="path2"
       inkscape:connector-curvature="0"
       style="fill:#000000;fill-opacity:1" />
  </g>
</svg>
