<?xml version="1.0" encoding="UTF-8" standalone="no"?>
<svg
   xmlns:dc="http://purl.org/dc/elements/1.1/"
   xmlns:cc="http://creativecommons.org/ns#"
   xmlns:rdf="http://www.w3.org/1999/02/22-rdf-syntax-ns#"
   xmlns:svg="http://www.w3.org/2000/svg"
   xmlns="http://www.w3.org/2000/svg"
   xmlns:sodipodi="http://sodipodi.sourceforge.net/DTD/sodipodi-0.dtd"
   xmlns:inkscape="http://www.inkscape.org/namespaces/inkscape"
   style="height: 512px; width: 512px;"
   viewBox="0 0 512 512"
   version="1.1"
   id="svg6"
   sodipodi:docname="warhammer.svg"
   inkscape:version="0.92.5 (2060ec1f9f, 2020-04-08)">
  <metadata
     id="metadata12">
    <rdf:RDF>
      <cc:Work
         rdf:about="">
        <dc:format>image/svg+xml</dc:format>
        <dc:type
           rdf:resource="http://purl.org/dc/dcmitype/StillImage" />
      </cc:Work>
    </rdf:RDF>
  </metadata>
  <defs
     id="defs10" />
  <sodipodi:namedview
     pagecolor="#ffffff"
     bordercolor="#666666"
     borderopacity="1"
     objecttolerance="10"
     gridtolerance="10"
     guidetolerance="10"
     inkscape:pageopacity="0"
     inkscape:pageshadow="2"
     inkscape:window-width="1848"
     inkscape:window-height="1016"
     id="namedview8"
     showgrid="false"
     inkscape:zoom="2.7480224"
     inkscape:cx="162.93016"
     inkscape:cy="318.73356"
     inkscape:window-x="72"
     inkscape:window-y="27"
     inkscape:window-maximized="1"
     inkscape:current-layer="svg6" />
  <g
     class=""
     style=""
     transform="translate(0,0)"
     id="g4">
    <path
       d="m 351.4,31.4 -55.9,27.75 54,34.62 z m -208.2,35.93 20,33.47 18.8,-29.3 z m 57,9.16 -7.6,11.82 100.2,64.19 -9.7,15.1 -100.2,-64.1 -24.8,38.7 100.2,64.1 -9.7,15.2 -100.2,-64.1 -7.5,11.7 150,96.1 37.9,-7.6 44.8,-70 z m 93.2,2.73 -16.2,25.28 38.7,24.7 16.2,-25.2 z m -184.7,41.98 20,33.5 18.8,-29.3 z m 280.1,76.1 -42.1,65.7 11.8,7.5 42.1,-65.7 z m -224.1,8.5 0.6,36 72.8,46.6 33,-14.5 z m 250.4,9.9 -33.2,51.8 c 11.7,2.8 24,7.3 36.5,12.3 19.3,7.6 54.53889,25.4487 85.41926,71.34592 C 488.1437,295.12666 452.8,245.9 415.1,215.7 Z M 172.6,267.8 27.77,494 H 82.38 L 211.4,292.6 Z"
       id="path2"
       inkscape:connector-curvature="0"
       style="fill:#000000;fill-opacity:1"
       sodipodi:nodetypes="ccccccccccccccccccccccccccccccccccccccccccccccccccc" />
  </g>
</svg>
